<svg id="svg" version="1.1" xmlns="http://www.w3.org/2000/svg" xmlns:xlink="http://www.w3.org/1999/xlink" width="300" height="194.74916387959868" viewBox="0, 0, 400,224.74916387959868"><g id="svgg"><path id="path0" d="M296.084 36.762 C 296.023 36.823,293.805 37.026,291.156 37.213 C 286.201 37.561,285.024 37.701,284.414 38.015 C 284.219 38.115,282.904 38.365,281.491 38.570 C 280.077 38.776,278.212 39.179,277.347 39.466 C 276.481 39.754,275.309 40.050,274.743 40.126 C 274.176 40.202,273.364 40.450,272.938 40.679 C 272.511 40.907,271.570 41.217,270.847 41.367 C 270.123 41.518,269.073 41.884,268.515 42.181 C 267.956 42.478,267.286 42.722,267.027 42.724 C 266.767 42.727,266.048 43.028,265.430 43.395 C 264.812 43.762,264.154 44.064,263.969 44.067 C 263.783 44.069,263.024 44.374,262.282 44.744 C 261.540 45.114,260.770 45.417,260.571 45.418 C 260.372 45.418,259.861 45.655,259.437 45.943 C 259.012 46.231,258.333 46.583,257.927 46.724 C 257.521 46.865,256.886 47.237,256.515 47.549 C 256.143 47.861,255.709 48.117,255.550 48.117 C 255.391 48.117,254.879 48.420,254.413 48.791 C 253.946 49.162,253.383 49.466,253.162 49.466 C 252.941 49.466,252.460 49.719,252.093 50.028 C 251.725 50.337,251.316 50.590,251.184 50.590 C 251.051 50.590,250.611 50.880,250.205 51.234 C 249.798 51.587,249.162 52.047,248.791 52.255 C 247.948 52.727,246.717 53.572,245.981 54.183 C 245.672 54.439,244.963 54.998,244.407 55.423 C 240.866 58.133,239.483 59.333,235.715 62.973 C 231.051 67.478,225.189 74.596,223.276 78.078 C 223.021 78.541,222.725 78.921,222.617 78.921 C 222.509 78.921,222.252 79.344,222.045 79.861 C 221.838 80.379,221.422 81.095,221.121 81.452 C 220.820 81.810,220.573 82.231,220.573 82.388 C 220.573 82.545,220.375 82.853,220.132 83.073 C 219.889 83.292,219.573 83.839,219.429 84.288 C 219.285 84.737,219.040 85.256,218.884 85.441 C 218.451 85.958,216.526 90.025,216.526 90.424 C 216.526 90.618,216.319 91.040,216.067 91.361 C 215.814 91.682,215.450 92.480,215.258 93.134 C 215.066 93.788,214.760 94.490,214.578 94.694 C 214.397 94.898,214.100 95.701,213.919 96.477 C 213.738 97.254,213.401 98.200,213.170 98.579 C 212.940 98.959,212.680 99.725,212.593 100.281 C 212.506 100.838,212.244 101.731,212.011 102.267 C 211.779 102.803,211.442 104.068,211.263 105.078 C 211.085 106.088,210.780 107.289,210.586 107.748 C 210.391 108.206,210.085 109.623,209.906 110.895 C 209.726 112.168,209.423 113.881,209.231 114.702 C 208.207 119.095,208.175 137.251,209.185 141.031 C 209.374 141.740,209.642 143.359,209.779 144.628 C 209.916 145.898,210.230 147.515,210.476 148.221 C 210.722 148.928,211.065 150.313,211.238 151.299 C 211.412 152.285,211.712 153.398,211.905 153.772 C 212.098 154.145,212.404 155.151,212.584 156.006 C 212.763 156.861,213.105 157.902,213.342 158.319 C 213.579 158.737,213.886 159.553,214.025 160.133 C 214.164 160.714,214.470 161.523,214.706 161.932 C 214.941 162.341,215.203 163.030,215.289 163.463 C 215.374 163.895,215.676 164.604,215.959 165.037 C 216.243 165.469,216.544 166.127,216.629 166.498 C 216.715 166.869,216.967 167.375,217.190 167.622 C 217.413 167.870,217.723 168.477,217.880 168.971 C 218.037 169.466,218.391 170.142,218.667 170.473 C 218.943 170.804,219.233 171.423,219.313 171.847 C 219.393 172.272,219.662 172.804,219.911 173.030 C 220.161 173.256,220.547 173.851,220.770 174.354 C 220.993 174.856,221.343 175.406,221.549 175.576 C 221.754 175.745,221.922 176.016,221.922 176.177 C 221.922 176.338,222.161 176.755,222.453 177.105 C 222.745 177.454,223.163 178.094,223.383 178.527 C 223.602 178.960,223.921 179.396,224.091 179.495 C 224.261 179.595,224.552 180.000,224.737 180.395 C 225.217 181.419,225.919 182.372,228.574 185.610 C 230.170 187.555,231.464 189.052,232.985 190.714 C 233.516 191.295,234.111 191.952,234.306 192.175 C 235.070 193.048,239.720 197.204,241.888 198.953 C 242.296 199.281,242.866 199.780,243.155 200.061 C 243.834 200.721,244.987 201.554,245.981 202.103 C 246.414 202.342,246.961 202.751,247.196 203.011 C 247.432 203.272,247.742 203.485,247.885 203.485 C 248.028 203.485,248.428 203.780,248.774 204.141 C 249.120 204.502,249.670 204.864,249.997 204.945 C 250.323 205.026,250.807 205.295,251.072 205.542 C 251.337 205.789,251.860 206.161,252.233 206.368 C 252.607 206.576,253.351 206.987,253.887 207.282 C 254.424 207.577,255.148 208.058,255.498 208.350 C 255.847 208.642,256.371 208.881,256.661 208.881 C 256.951 208.881,257.477 209.124,257.830 209.421 C 258.183 209.718,258.883 210.072,259.386 210.207 C 259.888 210.343,260.481 210.654,260.703 210.900 C 260.926 211.145,261.473 211.413,261.920 211.495 C 262.366 211.577,263.277 211.933,263.944 212.286 C 264.611 212.640,265.319 212.929,265.518 212.929 C 265.717 212.930,266.219 213.137,266.633 213.390 C 267.047 213.642,267.989 214.003,268.726 214.192 C 269.462 214.381,270.590 214.780,271.233 215.079 C 271.875 215.378,272.616 215.623,272.879 215.625 C 273.143 215.626,274.003 215.868,274.791 216.162 C 275.578 216.457,277.058 216.809,278.080 216.945 C 279.102 217.081,280.241 217.348,280.611 217.540 C 280.982 217.732,282.574 218.039,284.150 218.223 C 285.726 218.407,287.167 218.604,287.352 218.662 C 291.303 219.892,305.559 219.976,311.748 218.806 C 312.985 218.572,314.840 218.310,315.870 218.223 C 316.901 218.137,318.368 217.834,319.130 217.550 C 319.893 217.267,321.148 216.966,321.918 216.882 C 322.688 216.798,323.751 216.539,324.279 216.305 C 324.807 216.072,325.955 215.731,326.830 215.549 C 327.706 215.367,328.768 215.006,329.191 214.748 C 329.614 214.490,330.214 214.279,330.523 214.278 C 330.832 214.278,331.693 213.990,332.436 213.638 C 333.179 213.287,334.191 212.924,334.684 212.833 C 335.178 212.742,335.784 212.482,336.031 212.256 C 336.279 212.030,336.936 211.724,337.491 211.576 C 338.046 211.429,338.773 211.114,339.106 210.877 C 339.439 210.640,340.143 210.294,340.671 210.107 C 341.199 209.921,341.787 209.628,341.979 209.456 C 342.170 209.285,342.757 208.973,343.283 208.763 C 343.808 208.554,344.238 208.304,344.238 208.207 C 344.238 208.110,344.668 207.860,345.194 207.651 C 345.720 207.442,346.353 207.083,346.601 206.852 C 346.849 206.621,347.357 206.300,347.729 206.139 C 348.101 205.978,348.657 205.665,348.964 205.444 C 350.285 204.494,351.146 203.925,351.883 203.518 C 352.316 203.279,352.863 202.870,353.098 202.610 C 353.334 202.349,353.624 202.136,353.743 202.136 C 353.936 202.136,354.685 201.557,356.043 200.359 C 356.290 200.140,356.796 199.775,357.167 199.547 C 357.538 199.319,358.061 198.923,358.328 198.667 C 358.596 198.411,359.504 197.594,360.346 196.852 C 362.162 195.252,367.422 190.000,369.257 187.955 C 370.538 186.527,371.365 185.494,372.681 183.678 C 373.052 183.167,373.634 182.484,373.974 182.161 C 374.314 181.839,374.592 181.460,374.592 181.319 C 374.592 181.179,374.946 180.620,375.377 180.077 C 375.809 179.534,376.163 178.981,376.164 178.848 C 376.165 178.714,376.419 178.368,376.728 178.078 C 377.038 177.787,377.291 177.433,377.291 177.291 C 377.291 177.150,377.591 176.636,377.959 176.150 C 378.326 175.664,378.630 175.148,378.633 175.003 C 378.637 174.858,378.874 174.453,379.161 174.104 C 379.447 173.754,379.820 173.114,379.989 172.681 C 380.158 172.248,380.474 171.660,380.692 171.374 C 380.909 171.088,381.209 170.481,381.357 170.025 C 381.506 169.569,381.853 168.968,382.128 168.689 C 382.403 168.410,382.683 167.846,382.749 167.436 C 382.816 167.027,383.133 166.305,383.453 165.833 C 383.774 165.360,384.036 164.801,384.036 164.589 C 384.036 164.377,384.289 163.729,384.598 163.148 C 384.907 162.567,385.278 161.616,385.423 161.034 C 385.568 160.453,385.864 159.725,386.082 159.415 C 386.299 159.106,386.597 158.246,386.744 157.504 C 386.891 156.762,387.189 155.801,387.406 155.368 C 387.623 154.935,387.919 153.892,388.063 153.049 C 388.208 152.206,388.522 151.019,388.762 150.411 C 389.001 149.804,389.311 148.369,389.450 147.222 C 389.589 146.076,389.790 144.973,389.897 144.773 C 391.701 141.390,391.758 116.863,389.973 111.608 C 389.794 111.080,389.545 109.827,389.419 108.823 C 389.293 107.820,388.996 106.506,388.758 105.903 C 388.521 105.301,388.206 104.118,388.060 103.275 C 387.913 102.432,387.607 101.386,387.380 100.950 C 387.152 100.515,386.864 99.616,386.738 98.954 C 386.613 98.291,386.318 97.434,386.084 97.048 C 385.850 96.662,385.586 95.992,385.497 95.559 C 385.408 95.126,385.043 94.167,384.686 93.427 C 384.328 92.686,384.036 91.916,384.036 91.715 C 384.036 91.514,383.795 90.996,383.501 90.562 C 383.207 90.129,382.847 89.413,382.702 88.971 C 382.556 88.529,382.255 87.934,382.032 87.648 C 381.810 87.362,381.506 86.754,381.358 86.298 C 381.209 85.842,380.905 85.235,380.681 84.949 C 380.458 84.663,380.199 84.177,380.106 83.867 C 380.013 83.558,379.753 83.103,379.528 82.856 C 379.304 82.608,378.909 81.951,378.651 81.394 C 378.198 80.415,377.711 79.651,376.512 78.041 C 376.198 77.620,375.942 77.151,375.942 77.001 C 375.942 76.850,375.789 76.601,375.602 76.446 C 375.415 76.291,374.790 75.452,374.212 74.583 C 373.290 73.197,371.098 70.469,369.838 69.140 C 369.603 68.893,368.934 68.134,368.352 67.454 C 367.042 65.925,362.297 61.167,360.724 59.805 C 360.084 59.251,358.971 58.272,358.251 57.630 C 356.969 56.486,356.046 55.770,354.694 54.870 C 353.939 54.368,353.077 53.702,351.991 52.782 C 351.590 52.442,351.167 52.164,351.050 52.164 C 350.934 52.164,350.442 51.863,349.956 51.496 C 349.470 51.128,348.954 50.825,348.809 50.821 C 348.664 50.818,348.243 50.561,347.873 50.250 C 347.504 49.939,346.856 49.540,346.433 49.363 C 346.010 49.187,345.538 48.890,345.383 48.704 C 345.228 48.517,344.742 48.246,344.302 48.101 C 343.862 47.956,343.148 47.596,342.715 47.302 C 342.282 47.008,341.803 46.768,341.652 46.768 C 341.500 46.768,341.112 46.560,340.790 46.307 C 340.467 46.053,339.720 45.682,339.129 45.482 C 338.538 45.282,337.793 44.926,337.472 44.690 C 337.152 44.455,336.454 44.165,335.921 44.045 C 335.388 43.925,334.689 43.642,334.368 43.415 C 334.046 43.188,333.248 42.888,332.594 42.749 C 331.940 42.611,331.129 42.292,330.791 42.042 C 330.453 41.793,329.537 41.485,328.755 41.359 C 327.974 41.233,327.065 40.932,326.736 40.689 C 326.380 40.426,325.501 40.165,324.564 40.044 C 323.699 39.931,322.532 39.633,321.972 39.380 C 321.412 39.128,320.248 38.855,319.386 38.774 C 318.524 38.693,316.859 38.383,315.685 38.086 C 314.228 37.716,312.374 37.473,309.839 37.319 C 307.797 37.194,304.963 36.994,303.541 36.873 C 300.802 36.641,296.272 36.574,296.084 36.762 M95.955 41.081 C 96.235 41.135,96.640 41.133,96.855 41.076 C 97.070 41.020,96.841 40.976,96.346 40.979 C 95.852 40.981,95.676 41.027,95.955 41.081 M86.062 41.306 C 86.342 41.360,86.747 41.357,86.962 41.301 C 87.177 41.245,86.948 41.201,86.453 41.203 C 85.958 41.206,85.783 41.252,86.062 41.306 M85.952 61.608 C 85.952 62.164,85.996 62.392,86.050 62.114 C 86.103 61.835,86.103 61.380,86.050 61.102 C 85.996 60.823,85.952 61.051,85.952 61.608 M304.666 78.604 C 305.469 78.780,306.656 79.029,307.302 79.157 C 308.983 79.492,312.885 81.423,314.547 82.743 C 315.296 83.337,318.097 86.066,318.933 87.015 C 319.579 87.748,320.156 88.606,320.875 89.900 C 321.562 91.138,322.501 91.263,324.760 90.418 C 327.218 89.498,332.512 89.588,334.852 90.588 C 335.377 90.813,336.276 91.066,336.849 91.152 C 337.422 91.237,338.059 91.493,338.265 91.720 C 338.471 91.948,339.090 92.306,339.640 92.516 C 340.190 92.726,340.641 92.978,340.641 93.075 C 340.641 93.172,341.041 93.516,341.531 93.840 C 342.663 94.590,345.958 97.901,346.377 98.712 C 346.552 99.050,346.845 99.385,347.029 99.455 C 347.212 99.526,347.475 100.019,347.613 100.551 C 347.751 101.082,348.071 101.808,348.325 102.162 C 348.579 102.517,348.927 103.405,349.097 104.136 C 349.268 104.867,349.581 105.730,349.794 106.055 C 350.426 107.019,350.374 113.729,349.725 115.121 C 349.465 115.677,349.178 116.537,349.087 117.032 C 348.996 117.527,348.730 118.286,348.495 118.718 C 348.260 119.151,347.868 119.986,347.623 120.573 C 347.378 121.161,347.079 121.641,346.960 121.641 C 346.840 121.641,346.676 121.850,346.595 122.105 C 346.357 122.854,342.409 127.038,341.940 127.038 C 341.815 127.038,341.366 127.341,340.944 127.712 C 340.521 128.083,340.041 128.387,339.876 128.387 C 339.712 128.387,339.315 128.593,338.994 128.845 C 338.674 129.097,337.825 129.504,337.109 129.749 C 336.393 129.994,335.453 130.361,335.020 130.565 C 334.001 131.046,326.826 131.267,310.399 131.322 C 303.845 131.344,298.659 131.408,298.876 131.465 C 299.484 131.624,299.493 131.791,299.551 144.710 C 299.612 158.052,299.549 157.480,300.989 157.750 C 304.841 158.473,306.741 165.023,304.055 168.320 C 302.099 170.722,298.922 171.560,296.477 170.319 C 295.868 170.011,295.216 169.758,295.026 169.758 C 294.611 169.758,293.198 168.434,293.198 168.045 C 293.198 167.893,292.920 167.438,292.580 167.034 C 291.695 165.981,291.706 163.234,292.603 161.574 C 292.931 160.968,293.198 160.361,293.199 160.225 C 293.199 159.810,295.369 158.081,296.263 157.784 C 297.489 157.376,297.485 157.423,297.444 144.046 C 297.415 134.697,297.470 131.899,297.683 131.767 C 298.202 131.446,296.959 131.316,293.354 131.313 C 290.925 131.311,289.845 131.385,289.945 131.546 C 290.124 131.835,290.092 143.727,289.910 144.735 L 289.779 145.456 283.971 145.409 L 278.163 145.363 277.800 146.037 C 276.055 149.273,275.328 149.811,272.671 149.837 C 269.355 149.870,268.018 149.551,267.038 148.496 C 266.585 148.009,265.988 147.374,265.710 147.084 C 264.910 146.248,265.004 141.371,265.835 140.666 C 266.142 140.405,266.569 139.776,266.783 139.269 C 267.594 137.352,270.795 136.490,273.470 137.467 C 275.502 138.210,276.446 139.084,277.566 141.261 L 278.433 142.945 279.778 143.086 C 282.373 143.357,286.782 143.252,287.253 142.908 C 287.660 142.611,287.697 142.200,287.802 136.920 L 287.915 131.252 281.057 131.367 C 273.238 131.498,269.093 131.184,267.947 130.375 C 267.601 130.130,266.816 129.781,266.205 129.599 C 265.593 129.417,265.093 129.168,265.093 129.045 C 265.093 128.921,264.663 128.620,264.137 128.375 C 261.885 127.326,256.998 122.322,256.998 121.065 C 256.998 120.921,256.784 120.530,256.523 120.198 C 256.083 119.640,255.448 118.088,254.627 115.571 C 253.729 112.820,254.016 104.364,255.074 102.377 C 255.390 101.783,255.649 100.962,255.649 100.553 C 255.649 100.059,255.829 99.644,256.186 99.313 C 256.481 99.039,256.883 98.431,257.079 97.961 C 257.990 95.782,263.186 90.696,265.203 90.010 C 265.449 89.926,266.185 89.576,266.838 89.233 C 267.492 88.889,268.404 88.543,268.864 88.464 C 269.325 88.384,270.345 88.127,271.131 87.892 C 273.109 87.301,276.762 87.302,278.534 87.895 C 279.673 88.276,280.824 88.456,281.672 88.387 C 281.825 88.375,282.199 87.971,282.502 87.491 C 283.094 86.553,285.879 83.762,287.063 82.920 C 287.460 82.637,288.270 82.063,288.862 81.644 C 291.035 80.105,294.525 78.944,299.086 78.242 C 300.502 78.024,302.642 78.163,304.666 78.604 M296.684 108.932 C 295.626 109.583,295.721 109.652,296.937 109.116 C 297.416 108.905,298.465 108.668,299.269 108.590 L 300.731 108.446 299.157 108.412 C 297.841 108.383,297.436 108.468,296.684 108.932 M295.672 112.535 C 295.126 113.092,294.729 113.547,294.791 113.547 C 294.853 113.547,295.350 113.092,295.897 112.535 C 296.443 111.979,296.839 111.523,296.777 111.523 C 296.715 111.523,296.218 111.979,295.672 112.535 M305.584 112.337 C 305.883 112.722,306.172 112.998,306.228 112.948 C 306.283 112.899,306.039 112.584,305.685 112.247 L 305.041 111.636 305.584 112.337 M291.978 113.740 C 291.784 114.116,291.637 114.758,291.653 115.166 C 291.679 115.857,291.691 115.843,291.834 114.972 C 291.918 114.457,292.122 113.873,292.287 113.673 C 292.453 113.474,292.530 113.254,292.460 113.183 C 292.390 113.113,292.173 113.363,291.978 113.740 M304.005 116.031 C 304.019 116.760,304.033 116.774,304.237 116.263 C 304.381 115.903,304.376 115.641,304.223 115.487 C 304.064 115.328,303.995 115.499,304.005 116.031 M306.521 116.358 C 306.524 116.852,306.570 117.028,306.623 116.748 C 306.677 116.469,306.675 116.064,306.619 115.849 C 306.563 115.634,306.519 115.863,306.521 116.358 M311.628 131.969 C 311.781 132.256,311.861 137.173,311.861 146.370 L 311.861 160.335 312.398 160.872 C 312.693 161.168,313.275 161.471,313.690 161.547 C 314.719 161.736,325.992 161.561,326.727 161.346 C 327.254 161.191,327.825 161.892,327.825 162.693 C 327.825 163.594,311.603 163.947,310.530 163.069 L 310.049 162.676 310.112 147.322 C 310.166 133.965,310.218 131.940,310.512 131.755 C 311.030 131.427,311.373 131.493,311.628 131.969 M323.574 132.153 C 323.710 132.508,323.779 133.992,323.738 135.638 C 323.672 138.210,323.704 138.505,324.045 138.505 C 324.254 138.505,324.485 138.602,324.559 138.721 C 324.632 138.839,325.244 139.110,325.919 139.323 C 326.701 139.570,327.194 139.863,327.280 140.134 C 327.354 140.367,327.722 140.908,328.098 141.336 C 330.678 144.274,328.947 149.957,325.090 151.213 C 324.430 151.428,323.710 151.761,323.489 151.953 C 323.124 152.272,322.998 152.259,322.078 151.812 C 321.522 151.542,320.861 151.321,320.609 151.321 C 317.502 151.321,314.804 145.369,316.648 142.583 C 316.983 142.077,317.257 141.551,317.257 141.415 C 317.257 141.139,319.045 139.404,319.329 139.404 C 319.429 139.404,319.964 139.191,320.520 138.930 L 321.529 138.455 321.529 135.909 C 321.529 133.283,321.673 132.547,322.313 131.907 C 322.857 131.363,323.307 131.451,323.574 132.153 M36.987 138.505 C 36.616 138.750,36.110 138.964,35.863 138.979 C 35.516 139.000,35.498 139.029,35.785 139.105 C 35.989 139.159,36.545 139.034,37.021 138.827 C 37.497 138.621,38.190 138.372,38.561 138.276 L 39.236 138.101 38.449 138.080 C 38.007 138.068,37.365 138.254,36.987 138.505 M67.833 138.592 C 68.103 138.795,68.660 139.014,69.070 139.080 L 69.815 139.200 69.028 138.883 C 67.319 138.194,67.291 138.187,67.833 138.592 M34.128 139.818 C 33.722 140.170,33.224 140.549,33.022 140.661 C 32.820 140.774,32.310 141.321,31.888 141.877 C 30.825 143.280,30.629 143.649,31.225 143.126 C 31.500 142.885,31.935 142.314,32.192 141.856 C 32.449 141.399,32.874 140.925,33.137 140.802 C 33.819 140.485,35.410 139.179,35.115 139.179 C 34.978 139.179,34.534 139.467,34.128 139.818 M71.279 140.107 C 71.285 140.243,73.749 142.614,73.749 142.483 C 73.749 142.418,73.369 141.976,72.905 141.502 C 72.034 140.613,71.274 139.961,71.279 140.107 M74.095 143.190 C 74.338 143.479,74.661 144.137,74.813 144.651 L 75.089 145.587 74.966 144.688 C 74.888 144.121,74.623 143.581,74.249 143.227 C 73.719 142.725,73.702 142.721,74.095 143.190 M30.446 144.239 C 30.369 144.548,30.114 145.177,29.880 145.635 C 29.646 146.094,29.465 146.726,29.478 147.040 C 29.499 147.573,29.512 147.567,29.665 146.936 C 29.755 146.565,29.984 145.958,30.173 145.587 C 30.554 144.838,30.875 143.676,30.700 143.676 C 30.638 143.676,30.524 143.929,30.446 144.239 M75.211 180.574 C 75.211 199.791,75.137 216.071,75.047 216.751 L 74.883 217.988 75.206 216.751 C 75.553 215.424,75.706 148.420,75.366 146.510 C 75.281 146.028,75.211 161.356,75.211 180.574 M336.766 154.004 C 340.307 155.020,341.995 158.679,340.982 163.144 C 340.745 164.192,338.721 166.211,337.276 166.843 C 336.291 167.274,332.542 167.141,331.881 166.652 C 331.567 166.420,330.984 166.062,330.586 165.856 C 328.449 164.751,326.952 159.683,328.307 158.143 C 328.508 157.915,328.882 157.310,329.139 156.799 C 330.288 154.513,333.911 153.185,336.766 154.004 M29.687 216.645 C 29.683 216.772,29.813 217.075,29.976 217.319 C 30.139 217.563,30.446 218.218,30.659 218.775 C 30.871 219.331,31.356 220.141,31.736 220.573 C 32.504 221.448,32.281 220.890,31.382 219.687 C 31.064 219.261,30.803 218.755,30.803 218.562 C 30.801 218.174,29.698 216.278,29.687 216.645 M74.675 218.501 C 74.660 218.783,74.493 219.073,74.303 219.146 C 74.113 219.219,73.797 219.589,73.601 219.969 C 73.404 220.348,73.029 220.848,72.766 221.079 C 72.294 221.494,72.295 221.495,72.906 221.123 C 73.246 220.916,73.524 220.660,73.524 220.555 C 73.524 220.450,73.836 220.009,74.217 219.576 C 74.626 219.110,74.866 218.624,74.805 218.387 C 74.726 218.083,74.695 218.110,74.675 218.501 M71.431 222.428 C 70.731 223.122,70.728 223.130,71.378 222.599 C 71.755 222.291,72.159 221.962,72.277 221.868 C 72.394 221.774,72.418 221.698,72.329 221.698 C 72.241 221.698,71.837 222.026,71.431 222.428 M34.124 222.792 C 34.528 223.180,34.971 223.496,35.110 223.496 C 35.248 223.496,35.069 223.276,34.713 223.006 C 33.569 222.142,33.370 222.070,34.124 222.792 M36.168 223.754 C 36.610 223.881,36.971 224.153,37.038 224.408 C 37.173 224.927,37.774 224.999,37.774 224.497 C 37.774 224.126,36.486 223.483,35.814 223.517 C 35.593 223.528,35.753 223.635,36.168 223.754 M68.072 223.964 C 67.651 224.209,67.529 224.845,67.903 224.845 C 68.027 224.845,68.128 224.699,68.128 224.519 C 68.128 224.340,68.305 224.090,68.522 223.964 C 68.738 223.838,68.814 223.735,68.690 223.735 C 68.567 223.735,68.288 223.838,68.072 223.964 " stroke="none" fill="#1c8ae2" fill-rule="evenodd"></path><path id="path1" d="M92.524 82.769 C 91.749 82.882,90.936 83.160,90.613 83.422 C 90.304 83.674,89.747 84.024,89.376 84.200 C 88.708 84.518,87.585 85.668,86.353 87.297 C 84.904 89.212,84.992 84.932,84.992 153.471 C 84.992 221.386,84.920 217.637,86.245 219.378 C 86.545 219.772,86.790 220.194,86.790 220.316 C 86.790 220.694,89.794 223.279,90.388 223.411 C 91.830 223.733,92.476 224.031,92.578 224.422 C 92.725 224.986,122.990 225.098,122.990 224.535 C 122.990 224.221,123.702 223.873,124.874 223.616 C 126.774 223.198,129.382 220.199,130.258 217.426 L 130.862 215.514 130.861 153.305 L 130.860 91.096 130.158 89.337 C 129.166 86.852,127.729 84.983,126.127 84.092 C 125.793 83.907,125.210 83.578,124.830 83.362 C 123.436 82.569,97.214 82.088,92.524 82.769 M309.725 98.382 C 309.230 98.566,308.319 98.817,307.701 98.940 C 307.083 99.062,306.324 99.346,306.015 99.570 C 305.705 99.794,304.853 100.097,304.121 100.242 C 303.388 100.387,302.609 100.669,302.389 100.869 C 302.169 101.068,301.310 101.373,300.480 101.547 C 299.650 101.721,298.659 102.052,298.277 102.281 C 297.895 102.511,297.183 102.771,296.694 102.858 C 296.205 102.945,295.424 103.211,294.959 103.448 C 294.493 103.686,293.578 103.991,292.925 104.127 C 292.271 104.262,291.332 104.604,290.838 104.886 C 290.343 105.168,289.508 105.470,288.983 105.558 C 288.458 105.645,287.800 105.904,287.522 106.133 L 287.015 106.549 287.512 107.054 C 288.101 107.652,290.037 107.431,291.671 106.579 C 292.162 106.323,293.077 106.004,293.706 105.869 C 294.335 105.734,295.303 105.383,295.856 105.088 C 296.410 104.794,297.104 104.553,297.399 104.553 C 297.694 104.553,298.429 104.303,299.033 103.997 C 299.637 103.691,300.570 103.372,301.106 103.289 C 301.641 103.206,302.625 102.849,303.292 102.496 C 303.959 102.144,304.768 101.854,305.091 101.853 C 305.413 101.852,306.234 101.591,306.914 101.275 C 307.594 100.958,308.656 100.603,309.273 100.485 C 310.569 100.239,311.120 99.770,311.225 98.824 C 311.314 98.009,310.985 97.912,309.725 98.382 M266.592 139.779 C 266.509 139.861,266.442 140.252,266.442 140.648 C 266.442 141.044,266.229 141.637,265.969 141.968 L 265.497 142.568 266.079 143.150 C 266.802 143.872,267.145 145.041,266.893 145.920 C 266.684 146.647,267.258 147.628,268.661 148.946 C 269.713 149.933,269.510 149.350,268.413 148.232 C 267.380 147.180,267.235 146.469,267.040 141.489 C 266.976 139.871,266.877 139.493,266.592 139.779 M317.098 141.921 C 315.881 143.443,315.748 146.192,316.807 147.914 C 317.178 148.517,317.482 149.125,317.482 149.266 C 317.482 149.407,317.571 149.522,317.680 149.522 C 317.789 149.522,318.168 149.813,318.523 150.168 C 318.886 150.531,319.533 150.879,320.002 150.963 C 320.460 151.046,321.307 151.322,321.885 151.577 C 322.778 151.972,323.014 151.999,323.468 151.756 C 324.465 151.222,323.861 150.696,321.529 150.069 C 319.782 149.600,319.577 149.461,319.392 148.618 C 319.313 148.261,319.048 147.713,318.801 147.399 C 318.443 146.944,318.333 146.389,318.256 144.642 C 318.154 142.337,317.672 141.204,317.098 141.921 M278.186 143.901 C 278.186 144.334,278.232 144.511,278.289 144.295 C 278.345 144.078,278.345 143.724,278.289 143.508 C 278.232 143.291,278.186 143.468,278.186 143.901 M270.168 149.497 C 270.100 149.606,270.267 149.754,270.538 149.825 C 271.105 149.973,271.273 149.881,271.060 149.537 C 270.881 149.246,270.337 149.222,270.168 149.497 M297.352 157.701 C 297.108 157.871,296.474 158.083,295.944 158.172 C 295.293 158.281,294.866 158.507,294.631 158.866 C 294.439 159.158,294.102 159.455,293.882 159.525 C 292.693 159.902,292.403 162.788,293.555 162.788 C 294.101 162.788,294.320 164.500,293.835 164.984 C 293.635 165.184,293.809 165.509,294.566 166.350 C 297.312 169.398,297.279 169.349,296.859 169.813 C 296.529 170.178,296.522 170.264,296.805 170.443 C 297.257 170.729,297.469 170.708,297.478 170.377 C 297.482 170.205,297.601 170.249,297.783 170.489 C 298.247 171.100,299.940 171.006,301.352 170.290 C 306.844 167.507,306.463 159.665,300.749 157.878 C 298.951 157.316,297.977 157.265,297.352 157.701 " stroke="none" fill="#f9275e" fill-rule="evenodd"></path><path id="path2" d="M148.398 31.937 C 144.621 32.390,140.991 35.764,140.321 39.445 C 139.996 41.236,139.986 214.362,140.312 216.615 C 140.684 219.188,143.909 223.237,145.882 223.607 C 146.962 223.810,147.499 224.111,147.499 224.516 C 147.499 225.106,178.434 225.002,178.588 224.411 C 178.663 224.126,179.039 223.887,179.683 223.716 C 181.695 223.180,183.813 221.174,185.080 218.606 L 185.940 216.863 185.934 128.162 L 185.929 39.460 185.264 38.224 C 184.898 37.544,184.598 36.880,184.598 36.750 C 184.598 35.300,180.071 32.231,177.496 31.937 C 175.173 31.670,150.621 31.671,148.398 31.937 M95.482 40.866 C 95.424 40.958,95.813 41.034,96.346 41.034 C 96.879 41.034,97.268 40.958,97.211 40.866 C 97.154 40.773,96.764 40.697,96.346 40.697 C 95.928 40.697,95.539 40.773,95.482 40.866 M60.665 41.315 C 60.034 42.050,60.012 42.244,60.533 42.497 C 60.988 42.717,61.002 42.710,60.661 42.433 C 59.773 41.714,60.726 41.147,62.822 41.147 C 65.366 41.147,65.982 41.675,64.685 42.745 C 64.229 43.120,63.863 43.598,63.870 43.805 C 63.881 44.083,63.936 44.054,64.082 43.694 C 64.190 43.425,64.639 42.960,65.081 42.660 L 65.883 42.115 65.330 41.518 C 64.620 40.753,61.273 40.607,60.665 41.315 M68.372 41.005 C 68.423 41.051,68.971 41.151,69.590 41.226 C 70.346 41.318,70.567 41.296,70.264 41.158 C 69.837 40.964,68.175 40.829,68.372 41.005 M84.506 41.195 C 84.947 41.313,85.505 41.312,85.856 41.193 C 86.338 41.030,86.193 40.992,85.104 40.993 C 83.901 40.995,83.837 41.017,84.506 41.195 M82.592 43.508 C 82.593 44.373,82.634 44.700,82.682 44.233 C 82.731 43.767,82.730 43.059,82.681 42.659 C 82.631 42.260,82.591 42.642,82.592 43.508 M95.149 43.016 C 94.880 43.302,94.660 43.620,94.660 43.721 C 94.660 43.822,94.877 43.630,95.142 43.293 C 95.544 42.781,95.765 42.693,96.472 42.760 C 96.939 42.805,97.272 42.764,97.213 42.669 C 96.973 42.280,95.628 42.506,95.149 43.016 M61.545 43.087 C 61.989 43.461,62.051 43.753,62.107 45.740 L 62.170 47.973 62.890 48.266 C 63.285 48.427,63.658 48.481,63.717 48.385 C 63.776 48.289,63.622 48.195,63.373 48.176 C 62.466 48.108,62.301 47.717,62.234 45.481 C 62.174 43.465,62.136 43.316,61.608 43.001 L 61.046 42.665 61.545 43.087 M98.779 43.125 C 98.559 43.463,98.468 43.471,98.000 43.190 C 97.514 42.899,97.496 42.904,97.779 43.247 C 97.949 43.452,98.215 43.620,98.370 43.620 C 98.677 43.620,99.281 42.995,99.125 42.838 C 99.072 42.785,98.916 42.914,98.779 43.125 M66.859 45.082 C 66.858 46.194,66.896 46.678,66.943 46.156 C 66.991 45.634,66.991 44.724,66.945 44.133 C 66.898 43.542,66.860 43.969,66.859 45.082 M92.264 43.517 C 92.062 44.045,92.280 44.107,92.591 43.610 C 92.764 43.332,92.779 43.170,92.631 43.170 C 92.503 43.170,92.337 43.326,92.264 43.517 M92.014 44.969 C 92.014 45.402,92.060 45.579,92.117 45.363 C 92.173 45.146,92.173 44.792,92.117 44.576 C 92.060 44.359,92.014 44.536,92.014 44.969 M85.839 45.807 C 86.243 45.857,86.850 45.856,87.188 45.804 C 87.526 45.753,87.195 45.712,86.453 45.713 C 85.711 45.715,85.435 45.757,85.839 45.807 M98.015 46.262 C 97.763 46.595,97.765 46.613,98.029 46.377 C 98.280 46.154,98.433 46.177,98.805 46.490 C 99.268 46.879,99.268 46.879,98.841 46.374 C 98.328 45.769,98.383 45.776,98.015 46.262 M97.234 46.749 C 97.117 46.862,96.768 47.000,96.459 47.055 L 95.897 47.156 96.487 47.187 C 96.812 47.204,97.204 47.066,97.358 46.880 C 97.664 46.512,97.577 46.419,97.234 46.749 M101.403 48.457 C 101.188 48.716,101.047 48.736,100.813 48.542 C 100.644 48.402,100.506 48.337,100.506 48.399 C 100.506 48.864,101.152 48.971,101.518 48.566 C 101.742 48.319,101.871 48.117,101.805 48.117 C 101.739 48.117,101.558 48.270,101.403 48.457 M97.234 48.775 C 97.117 48.890,96.667 49.026,96.234 49.077 L 95.447 49.169 96.263 49.205 C 96.751 49.227,97.190 49.106,97.358 48.904 C 97.665 48.534,97.576 48.442,97.234 48.775 M102.632 56.452 C 102.551 56.584,102.348 56.639,102.181 56.575 C 101.995 56.504,101.922 56.575,101.993 56.759 C 102.069 56.956,101.814 57.144,101.251 57.306 C 100.408 57.549,100.407 57.550,101.180 57.417 C 101.613 57.342,102.137 57.272,102.344 57.260 C 102.552 57.249,102.669 57.155,102.606 57.053 C 102.543 56.950,102.613 56.719,102.763 56.539 C 102.912 56.359,102.977 56.211,102.908 56.211 C 102.838 56.211,102.714 56.319,102.632 56.452 M52.028 59.696 C 52.028 61.428,52.064 62.106,52.106 61.204 C 52.149 60.302,52.149 58.886,52.106 58.056 C 52.063 57.227,52.028 57.965,52.028 59.696 M70.910 59.022 C 70.911 60.382,70.948 60.910,70.993 60.194 C 71.037 59.479,71.037 58.366,70.992 57.721 C 70.947 57.076,70.910 57.662,70.910 59.022 M37.186 59.584 C 37.186 61.130,37.222 61.762,37.266 60.989 C 37.310 60.216,37.310 58.952,37.266 58.179 C 37.222 57.406,37.186 58.038,37.186 59.584 M42.608 57.336 C 42.532 57.459,41.773 57.560,40.922 57.560 C 40.071 57.560,39.327 57.636,39.270 57.729 C 39.066 58.056,42.459 57.764,42.735 57.431 C 42.881 57.255,42.944 57.111,42.874 57.111 C 42.804 57.111,42.685 57.212,42.608 57.336 M67.960 57.898 C 67.963 58.392,68.009 58.568,68.062 58.289 C 68.116 58.009,68.114 57.604,68.058 57.389 C 68.002 57.174,67.958 57.403,67.960 57.898 M86.347 57.711 C 86.604 58.123,86.601 58.262,86.327 58.610 C 86.031 58.987,86.036 58.996,86.397 58.713 C 86.891 58.326,86.897 57.929,86.417 57.532 C 86.077 57.251,86.070 57.266,86.347 57.711 M113.210 57.503 C 112.344 57.547,111.564 57.654,111.477 57.741 C 111.390 57.827,112.048 57.865,112.939 57.824 C 113.830 57.783,114.655 57.657,114.772 57.543 C 114.890 57.429,114.940 57.355,114.885 57.380 C 114.829 57.404,114.075 57.460,113.210 57.503 M81.985 57.738 C 81.925 57.836,82.248 57.879,82.703 57.834 C 83.947 57.711,84.095 57.598,83.037 57.578 C 82.519 57.568,82.046 57.640,81.985 57.738 M97.800 57.907 C 97.596 58.152,97.582 58.324,97.751 58.493 C 97.921 58.662,97.980 58.610,97.955 58.315 C 97.927 57.983,98.126 57.870,98.932 57.763 L 99.944 57.628 99.016 57.594 C 98.420 57.573,97.985 57.685,97.800 57.907 M84.194 57.968 C 84.444 58.409,83.667 59.134,82.944 59.134 C 82.583 59.134,82.218 58.967,82.087 58.741 C 81.961 58.524,81.854 58.454,81.851 58.583 C 81.825 59.469,83.328 59.610,84.095 58.794 C 84.533 58.328,84.574 58.180,84.326 57.951 C 84.086 57.729,84.060 57.732,84.194 57.968 M87.999 60.371 C 87.999 61.731,88.036 62.259,88.081 61.543 C 88.126 60.828,88.125 59.715,88.080 59.070 C 88.035 58.425,87.998 59.011,87.999 60.371 M54.258 58.741 C 54.494 58.957,54.853 59.128,55.056 59.120 C 55.289 59.111,55.222 59.025,54.874 58.886 C 54.572 58.765,54.213 58.595,54.077 58.507 C 53.941 58.419,54.022 58.524,54.258 58.741 M106.209 60.371 C 106.210 61.608,106.248 62.085,106.293 61.431 C 106.339 60.778,106.338 59.766,106.292 59.183 C 106.246 58.600,106.209 59.134,106.209 60.371 M65.883 58.621 C 65.877 59.139,67.666 59.716,67.825 59.247 C 67.867 59.123,67.539 59.014,67.097 59.004 C 66.654 58.995,66.200 58.843,66.089 58.667 C 65.955 58.455,65.885 58.440,65.883 58.621 M118.494 58.561 C 118.494 58.872,119.768 59.286,120.180 59.108 L 120.630 58.913 120.180 58.984 C 119.933 59.023,119.452 58.918,119.112 58.752 C 118.772 58.585,118.494 58.499,118.494 58.561 M58.508 59.142 C 58.358 59.382,58.236 59.706,58.236 59.862 C 58.237 60.018,58.391 59.853,58.578 59.494 C 58.967 58.747,58.916 58.488,58.508 59.142 M127.936 58.851 C 128.418 58.910,128.940 59.183,129.285 59.559 C 129.595 59.895,129.722 60.006,129.567 59.804 C 129.413 59.602,129.286 59.267,129.286 59.060 C 129.286 58.757,129.081 58.692,128.218 58.721 C 127.304 58.751,127.264 58.770,127.936 58.851 M42.102 59.202 C 42.728 59.449,42.939 59.809,42.458 59.809 C 42.314 59.809,42.249 59.862,42.314 59.927 C 42.473 60.086,43.170 59.806,43.170 59.582 C 43.170 59.484,42.852 59.292,42.462 59.156 C 41.562 58.842,41.282 58.878,42.102 59.202 M43.687 60.034 C 43.687 60.714,43.730 60.992,43.781 60.652 C 43.833 60.312,43.833 59.755,43.781 59.415 C 43.730 59.075,43.687 59.354,43.687 60.034 M68.489 60.389 C 68.414 60.585,68.353 61.119,68.353 61.576 C 68.353 63.345,66.692 64.112,65.671 62.814 C 65.415 62.488,65.205 62.319,65.205 62.438 C 65.205 62.901,66.270 63.631,66.946 63.631 C 67.902 63.631,68.578 62.753,68.578 61.510 C 68.578 60.995,68.699 60.452,68.848 60.304 C 69.028 60.123,69.036 60.034,68.872 60.034 C 68.737 60.034,68.565 60.194,68.489 60.389 M82.874 60.229 C 82.513 60.307,82.168 60.523,82.107 60.708 C 82.011 60.997,82.049 61.001,82.368 60.738 C 82.573 60.569,82.985 60.477,83.283 60.534 C 83.672 60.609,83.793 60.552,83.710 60.336 C 83.647 60.170,83.580 60.046,83.562 60.060 C 83.545 60.075,83.235 60.151,82.874 60.229 M54.620 60.875 C 54.249 61.296,54.219 61.377,54.525 61.132 C 54.772 60.933,55.177 60.659,55.424 60.522 C 55.765 60.333,55.788 60.271,55.520 60.265 C 55.325 60.262,54.920 60.536,54.620 60.875 M118.792 61.287 C 117.582 63.242,117.198 63.590,116.807 63.082 C 116.621 62.842,116.470 62.754,116.470 62.886 C 116.470 64.042,117.654 63.706,118.367 62.349 C 119.437 60.309,119.491 60.279,120.461 61.171 L 121.304 61.945 120.529 61.102 C 119.559 60.046,119.560 60.046,118.792 61.287 M62.796 61.495 C 62.798 62.114,62.842 62.340,62.893 61.998 C 62.945 61.656,62.944 61.150,62.890 60.874 C 62.837 60.597,62.794 60.877,62.796 61.495 M56.474 61.777 C 56.886 62.392,57.263 62.860,57.313 62.817 C 57.420 62.725,56.225 60.968,55.931 60.786 C 55.817 60.716,56.062 61.162,56.474 61.777 M78.340 61.553 C 78.453 61.720,78.618 62.230,78.707 62.687 C 78.867 63.508,78.869 63.510,78.895 62.813 C 78.909 62.422,78.745 61.916,78.527 61.678 C 78.311 61.442,78.226 61.386,78.340 61.553 M58.741 62.170 C 58.744 62.664,58.790 62.840,58.844 62.561 C 58.897 62.281,58.895 61.876,58.839 61.661 C 58.783 61.446,58.739 61.675,58.741 62.170 M75.323 61.589 C 75.323 61.702,75.045 61.902,74.705 62.033 L 74.087 62.270 74.761 62.228 C 75.132 62.205,75.548 62.255,75.684 62.340 C 75.849 62.442,75.897 62.306,75.827 61.938 C 75.727 61.418,75.323 61.138,75.323 61.589 M46.488 62.226 C 46.780 62.504,47.139 62.729,47.286 62.725 C 47.434 62.721,47.352 62.606,47.105 62.469 C 46.858 62.331,46.499 62.107,46.307 61.970 C 46.116 61.832,46.197 61.948,46.488 62.226 M130.428 61.820 C 130.418 61.999,130.134 62.454,129.797 62.832 L 129.184 63.519 129.937 62.813 C 130.354 62.422,130.635 61.971,130.568 61.801 C 130.470 61.555,130.442 61.559,130.428 61.820 M111.598 62.395 C 111.639 62.518,112.272 62.619,113.004 62.619 C 113.906 62.619,114.428 62.728,114.627 62.957 C 114.875 63.241,114.884 63.218,114.686 62.807 C 114.435 62.286,111.427 61.884,111.598 62.395 M98.707 62.507 C 98.299 62.638,98.561 62.693,99.663 62.709 C 100.656 62.724,101.180 62.822,101.180 62.994 C 101.180 63.138,101.245 63.192,101.325 63.112 C 101.924 62.513,100.046 62.078,98.707 62.507 M73.476 63.107 C 72.949 63.635,72.826 63.670,72.469 63.401 C 72.080 63.107,72.080 63.112,72.458 63.525 C 72.846 63.947,72.868 63.941,73.578 63.232 C 73.977 62.833,74.252 62.507,74.190 62.507 C 74.127 62.507,73.806 62.777,73.476 63.107 M85.720 62.954 C 85.418 63.438,84.877 63.554,84.690 63.176 C 84.627 63.049,84.601 63.074,84.633 63.232 C 84.664 63.390,84.893 63.549,85.141 63.586 C 85.623 63.657,86.210 63.127,86.080 62.737 C 86.037 62.608,85.875 62.706,85.720 62.954 M62.965 62.858 C 62.940 63.597,63.528 63.894,63.969 63.365 C 64.398 62.851,64.398 62.849,63.969 63.238 C 63.553 63.615,63.523 63.610,63.254 63.125 C 63.099 62.847,62.969 62.727,62.965 62.858 M77.625 63.517 C 78.137 64.067,78.287 64.126,78.524 63.871 C 78.754 63.624,78.752 63.597,78.511 63.734 C 78.331 63.836,77.974 63.696,77.611 63.380 L 77.010 62.857 77.625 63.517 M45.480 63.631 C 45.795 63.879,46.125 64.081,46.215 64.081 C 46.305 64.081,46.122 63.879,45.807 63.631 C 45.493 63.384,45.162 63.182,45.072 63.182 C 44.982 63.182,45.166 63.384,45.480 63.631 M49.119 63.422 C 49.037 63.554,48.753 63.750,48.487 63.858 C 48.158 63.991,48.118 64.057,48.363 64.067 C 48.560 64.075,48.905 63.879,49.129 63.631 C 49.353 63.384,49.475 63.182,49.402 63.182 C 49.328 63.182,49.201 63.290,49.119 63.422 M81.250 63.584 C 81.038 63.920,80.959 63.927,80.584 63.642 C 80.174 63.331,80.173 63.336,80.551 63.748 C 80.920 64.151,80.968 64.154,81.324 63.797 C 81.533 63.588,81.656 63.369,81.598 63.310 C 81.539 63.251,81.382 63.375,81.250 63.584 M93.985 63.377 C 93.985 63.499,93.808 63.645,93.592 63.701 C 93.288 63.781,93.311 63.810,93.691 63.830 C 94.237 63.859,94.571 63.517,94.214 63.296 C 94.088 63.219,93.985 63.255,93.985 63.377 M109.932 63.687 C 110.179 64.015,110.597 64.081,112.423 64.081 C 114.248 64.081,114.666 64.015,114.914 63.687 C 115.167 63.353,115.165 63.336,114.896 63.575 C 114.691 63.758,113.832 63.856,112.423 63.856 C 111.014 63.856,110.155 63.758,109.949 63.575 C 109.681 63.336,109.678 63.353,109.932 63.687 M99.044 63.856 L 96.796 63.994 98.975 64.037 C 100.234 64.063,101.213 63.986,101.293 63.856 C 101.369 63.732,101.401 63.651,101.362 63.675 C 101.324 63.699,100.281 63.780,99.044 63.856 M126.759 64.240 C 127.039 64.294,127.444 64.292,127.659 64.235 C 127.874 64.179,127.645 64.135,127.150 64.138 C 126.655 64.140,126.480 64.186,126.759 64.240 M299.775 78.212 C 298.825 78.487,299.777 79.844,301.180 80.216 C 301.799 80.380,303.068 80.763,304.000 81.067 C 304.932 81.370,306.012 81.619,306.400 81.619 C 306.818 81.619,307.369 81.841,307.755 82.166 C 308.113 82.468,308.662 82.778,308.974 82.857 C 309.287 82.935,309.870 83.346,310.270 83.771 C 310.670 84.195,311.137 84.542,311.308 84.542 C 312.236 84.542,316.905 89.529,317.138 90.769 C 317.252 91.378,317.665 91.948,318.760 93.005 C 320.590 94.773,321.075 94.889,323.983 94.250 C 330.060 92.913,333.727 92.697,337.156 93.471 C 339.743 94.056,341.323 93.332,339.404 92.442 C 339.033 92.269,338.526 91.944,338.277 91.719 C 338.029 91.494,337.371 91.238,336.816 91.151 C 336.261 91.064,335.377 90.809,334.852 90.586 C 332.505 89.587,327.216 89.499,324.760 90.418 C 322.501 91.263,321.562 91.138,320.875 89.900 C 320.144 88.583,319.569 87.734,318.923 87.015 C 317.968 85.952,315.257 83.304,314.549 82.743 C 313.087 81.585,309.065 79.521,307.779 79.268 C 307.365 79.186,306.382 78.966,305.593 78.778 C 304.805 78.590,303.931 78.494,303.650 78.564 C 303.369 78.635,302.777 78.542,302.335 78.357 C 301.503 78.009,300.646 77.961,299.775 78.212 M101.028 82.462 C 104.840 82.497,111.012 82.497,114.744 82.462 C 118.476 82.427,115.357 82.399,107.813 82.399 C 100.270 82.399,97.216 82.427,101.028 82.462 M272.447 87.606 C 272.369 87.683,271.922 87.825,271.454 87.920 C 270.985 88.016,270.045 88.206,269.365 88.342 C 268.301 88.555,265.965 89.517,264.868 90.193 C 264.682 90.307,264.237 90.575,263.878 90.788 C 263.039 91.285,261.270 92.988,261.270 93.298 C 261.270 93.703,262.528 93.560,263.130 93.086 C 263.445 92.839,263.846 92.636,264.022 92.636 C 264.197 92.636,264.819 92.320,265.403 91.933 C 265.987 91.546,267.142 91.050,267.971 90.830 C 268.799 90.610,269.762 90.319,270.110 90.184 C 270.458 90.049,271.058 89.938,271.443 89.938 C 271.828 89.938,272.470 89.820,272.869 89.676 C 273.484 89.453,273.800 89.488,274.932 89.900 C 275.750 90.199,276.795 90.388,277.623 90.388 C 278.511 90.388,279.068 90.497,279.240 90.703 C 279.384 90.876,279.747 91.080,280.048 91.155 C 280.348 91.231,280.701 91.492,280.831 91.735 C 280.976 92.006,281.566 92.316,282.355 92.537 C 283.063 92.735,284.077 93.056,284.609 93.251 C 285.865 93.711,286.280 93.396,285.583 92.510 C 285.319 92.175,285.104 91.784,285.104 91.641 C 285.104 91.213,283.460 89.555,282.856 89.374 C 282.546 89.281,282.025 89.016,281.697 88.784 C 281.368 88.553,280.862 88.363,280.572 88.360 C 280.282 88.358,279.286 88.158,278.359 87.915 C 276.731 87.488,272.771 87.281,272.447 87.606 M130.368 89.826 C 130.481 90.073,130.631 90.427,130.699 90.613 C 130.808 90.904,130.827 90.902,130.842 90.599 C 130.852 90.407,130.703 90.053,130.510 89.813 C 130.166 89.383,130.164 89.383,130.368 89.826 M84.825 153.457 C 84.797 187.836,84.848 216.081,84.939 216.224 C 85.087 216.456,85.084 155.166,84.934 108.713 C 84.902 98.943,84.853 119.078,84.825 153.457 M130.971 153.457 C 130.971 187.465,130.997 201.344,131.029 184.299 C 131.060 167.254,131.060 139.429,131.029 122.466 C 130.997 105.503,130.971 119.449,130.971 153.457 M310.399 91.906 C 309.505 91.997,307.813 92.624,307.813 92.864 C 307.813 92.968,307.232 93.169,306.521 93.310 C 304.770 93.656,303.809 93.969,303.724 94.220 C 303.686 94.336,303.049 94.542,302.310 94.678 C 301.571 94.815,300.688 95.125,300.348 95.367 C 300.008 95.609,299.094 95.907,298.319 96.029 C 297.543 96.150,296.640 96.444,296.312 96.682 C 295.984 96.920,295.079 97.261,294.300 97.441 C 293.521 97.621,292.768 97.927,292.626 98.121 C 292.470 98.334,291.762 98.560,290.844 98.690 C 289.840 98.832,289.152 99.064,288.828 99.369 C 288.557 99.623,288.219 99.831,288.077 99.831 C 287.779 99.831,287.352 100.542,287.352 101.037 C 287.352 102.146,289.587 102.376,290.948 101.407 C 291.274 101.175,292.238 100.823,293.091 100.625 C 293.944 100.428,294.808 100.115,295.012 99.931 C 295.215 99.746,296.017 99.484,296.793 99.347 C 297.570 99.210,298.387 98.915,298.611 98.691 C 298.836 98.466,299.404 98.218,299.875 98.139 C 301.153 97.924,302.263 97.562,302.642 97.237 C 302.827 97.078,303.586 96.837,304.328 96.702 C 305.070 96.567,305.954 96.253,306.292 96.004 C 306.629 95.755,307.388 95.490,307.978 95.413 C 308.568 95.337,309.505 95.036,310.062 94.745 C 310.618 94.453,311.454 94.066,311.920 93.885 C 313.818 93.147,312.686 91.674,310.399 91.906 M260.035 94.655 C 259.956 94.904,259.739 95.260,259.553 95.446 C 259.250 95.749,259.252 95.800,259.567 95.921 C 260.178 96.155,260.596 95.834,260.596 95.130 C 260.596 94.328,260.236 94.023,260.035 94.655 M310.174 97.781 C 309.803 97.858,309.247 98.086,308.938 98.289 C 308.628 98.492,307.917 98.723,307.356 98.802 C 306.796 98.880,306.005 99.147,305.599 99.394 C 305.194 99.640,304.337 99.951,303.696 100.084 C 303.054 100.217,302.277 100.493,301.967 100.697 C 301.658 100.901,301.254 101.137,301.068 101.221 C 300.817 101.334,300.853 101.378,301.206 101.389 C 301.468 101.398,301.942 101.201,302.259 100.951 C 302.577 100.701,303.425 100.381,304.145 100.240 C 304.864 100.099,305.690 99.800,305.981 99.576 C 306.272 99.352,306.879 99.107,307.330 99.031 C 307.781 98.955,308.747 98.694,309.477 98.452 C 311.066 97.923,311.396 97.999,311.241 98.858 C 311.102 99.626,310.793 100.044,310.182 100.292 L 309.725 100.477 310.180 100.492 C 311.028 100.518,311.636 99.881,311.636 98.964 C 311.636 98.210,311.304 97.533,310.972 97.613 C 310.904 97.629,310.545 97.705,310.174 97.781 M256.020 100.837 C 255.807 101.391,255.842 102.530,256.071 102.530 C 256.359 102.530,256.578 101.194,256.356 100.796 C 256.191 100.501,256.147 100.506,256.020 100.837 M307.139 101.180 C 306.335 101.545,305.873 101.845,306.112 101.849 C 306.351 101.852,306.983 101.644,307.515 101.387 C 308.047 101.129,308.762 100.834,309.103 100.731 C 309.719 100.546,309.719 100.544,309.162 100.532 C 308.853 100.524,307.943 100.816,307.139 101.180 M298.820 101.670 C 298.387 101.793,297.881 102.023,297.695 102.182 C 297.510 102.341,297.206 102.527,297.021 102.595 C 296.782 102.683,296.816 102.724,297.139 102.737 C 297.390 102.746,297.842 102.581,298.144 102.370 C 298.446 102.158,299.152 101.862,299.712 101.710 C 300.327 101.544,300.508 101.438,300.169 101.441 C 299.859 101.444,299.252 101.547,298.820 101.670 M303.406 102.439 C 302.800 102.760,302.254 103.078,302.192 103.145 C 301.930 103.431,303.463 102.913,303.813 102.598 C 304.025 102.407,304.530 102.173,304.937 102.076 C 305.596 101.920,305.613 101.898,305.093 101.878 C 304.771 101.865,304.012 102.118,303.406 102.439 M294.772 103.083 C 294.340 103.247,293.682 103.543,293.311 103.741 C 292.399 104.227,293.162 104.224,294.274 103.737 C 294.733 103.535,295.464 103.236,295.897 103.072 C 296.571 102.817,296.603 102.775,296.121 102.780 C 295.812 102.783,295.205 102.920,294.772 103.083 M300.169 103.510 C 299.736 103.667,299.078 103.962,298.707 104.165 C 297.673 104.732,298.676 104.663,299.870 104.085 C 300.402 103.827,301.117 103.532,301.459 103.430 C 302.072 103.245,302.073 103.243,301.518 103.233 C 301.209 103.228,300.601 103.352,300.169 103.510 M291.094 104.335 C 290.741 104.441,290.286 104.672,290.083 104.848 C 289.880 105.025,289.562 105.225,289.376 105.293 C 289.137 105.381,289.171 105.422,289.495 105.435 C 289.745 105.445,290.193 105.283,290.489 105.075 C 290.785 104.868,291.389 104.569,291.832 104.411 C 292.723 104.092,292.114 104.029,291.094 104.335 M254.658 105.503 C 254.489 106.632,254.687 107.487,255.003 106.989 C 255.249 106.600,255.248 105.202,255.000 104.812 C 254.869 104.605,254.760 104.827,254.658 105.503 M295.856 105.088 C 295.303 105.383,294.335 105.734,293.706 105.869 C 293.077 106.004,292.162 106.323,291.671 106.579 C 290.072 107.412,288.102 107.651,287.531 107.080 C 286.950 106.499,287.230 106.018,288.336 105.697 C 288.723 105.585,288.858 105.484,288.638 105.473 C 287.514 105.416,286.647 106.082,286.720 106.947 C 286.811 108.023,287.669 108.398,288.777 107.846 C 289.168 107.651,290.037 107.384,290.708 107.253 C 291.379 107.122,292.240 106.826,292.620 106.595 C 293.000 106.365,293.863 106.060,294.538 105.919 C 295.213 105.778,295.922 105.522,296.112 105.352 C 296.303 105.181,296.813 104.940,297.246 104.817 C 297.936 104.621,297.961 104.591,297.448 104.573 C 297.126 104.562,296.410 104.794,295.856 105.088 M254.526 109.723 C 254.288 110.167,254.354 111.838,254.667 113.319 C 254.856 114.213,255.125 113.446,255.301 111.507 C 255.472 109.615,255.075 108.698,254.526 109.723 M349.410 114.109 C 349.182 114.534,349.169 114.745,349.359 114.935 C 349.548 115.124,349.683 115.035,349.888 114.587 C 350.267 113.755,349.832 113.320,349.410 114.109 M348.159 115.823 C 347.944 116.238,347.789 117.017,347.803 117.615 C 347.824 118.541,347.762 118.688,347.308 118.802 C 347.022 118.874,346.666 119.202,346.516 119.531 C 346.366 119.861,345.994 120.326,345.690 120.565 C 345.344 120.837,345.085 121.329,344.997 121.882 C 344.919 122.368,344.764 122.766,344.652 122.766 C 344.540 122.766,344.105 123.094,343.686 123.496 C 343.266 123.898,342.486 124.552,341.951 124.950 C 341.416 125.347,340.635 125.970,340.215 126.333 C 339.795 126.697,339.147 127.055,338.775 127.130 C 337.715 127.342,336.734 129.286,337.687 129.286 C 338.145 129.286,340.792 127.942,341.182 127.510 C 341.417 127.250,341.735 127.038,341.889 127.038 C 342.314 127.038,346.487 122.775,346.487 122.341 C 346.487 122.240,346.717 121.908,346.999 121.604 C 347.281 121.300,347.657 120.602,347.835 120.054 C 348.014 119.505,348.285 118.926,348.439 118.767 C 349.115 118.069,349.396 115.801,348.862 115.357 C 348.598 115.138,348.469 115.224,348.159 115.823 M269.927 137.135 C 267.602 137.957,266.226 139.113,266.840 139.727 C 266.915 139.802,267.005 140.595,267.040 141.489 C 267.271 147.386,268.195 149.686,270.211 149.385 C 270.739 149.307,270.982 149.374,271.078 149.624 C 271.402 150.469,274.660 149.949,275.749 148.878 C 278.360 146.308,278.879 143.620,277.305 140.805 C 275.727 137.984,272.319 136.289,269.927 137.135 M318.943 141.203 C 318.867 141.327,318.507 141.428,318.143 141.428 C 317.397 141.428,317.332 141.564,317.821 142.105 C 318.057 142.365,318.190 143.141,318.256 144.654 C 318.333 146.389,318.443 146.945,318.801 147.399 C 319.048 147.713,319.313 148.261,319.392 148.618 C 319.577 149.461,319.782 149.600,321.529 150.069 C 322.333 150.286,323.197 150.594,323.450 150.754 C 323.817 150.987,323.986 150.990,324.291 150.767 C 324.924 150.304,324.061 149.753,322.313 149.506 C 320.454 149.243,320.478 149.258,320.143 148.140 C 319.993 147.638,319.712 147.169,319.519 147.098 C 319.326 147.027,319.094 146.861,319.003 146.728 C 318.717 146.310,318.802 141.547,319.101 141.248 C 319.249 141.099,319.306 140.978,319.226 140.978 C 319.147 140.978,319.020 141.079,318.943 141.203 M332.549 154.060 C 330.763 154.572,329.072 156.320,328.646 158.095 C 328.286 159.597,331.104 164.812,332.276 164.812 C 332.412 164.812,332.796 165.065,333.130 165.374 C 335.473 167.545,340.295 166.175,340.982 163.143 C 342.396 156.908,338.237 152.429,332.549 154.060 M292.524 162.719 C 292.524 162.923,292.684 163.267,292.879 163.482 C 293.154 163.786,293.179 163.978,292.992 164.329 C 292.631 165.001,292.695 165.582,293.198 166.222 C 293.446 166.537,293.648 167.054,293.648 167.372 C 293.648 167.796,293.793 167.987,294.191 168.087 C 294.499 168.164,294.788 168.441,294.860 168.728 C 294.964 169.142,295.107 169.215,295.664 169.133 C 296.207 169.053,296.379 169.132,296.525 169.528 C 296.679 169.943,296.751 169.972,296.973 169.704 C 297.249 169.371,297.102 169.166,294.566 166.350 C 293.809 165.509,293.635 165.184,293.835 164.984 C 294.126 164.694,294.185 163.480,293.926 163.121 C 293.563 162.617,292.524 162.319,292.524 162.719 M130.597 216.301 C 130.526 216.610,130.398 217.066,130.313 217.313 C 130.227 217.560,130.321 217.479,130.522 217.131 C 130.724 216.784,130.851 216.329,130.807 216.120 C 130.749 215.848,130.688 215.900,130.597 216.301 M87.015 220.869 C 87.015 220.907,87.344 221.236,87.746 221.599 L 88.477 222.260 87.816 221.529 C 87.201 220.848,87.015 220.695,87.015 220.869 M123.496 223.996 C 122.991 224.239,122.790 224.845,123.215 224.845 C 123.339 224.845,123.440 224.709,123.440 224.543 C 123.440 224.376,123.668 224.130,123.946 223.996 C 124.224 223.861,124.351 223.752,124.227 223.752 C 124.103 223.752,123.775 223.861,123.496 223.996 " stroke="none" fill="#fbc342" fill-rule="evenodd"></path><path id="path3" d="M0.000 112.423 L 0.000 224.845 18.566 224.845 C 36.127 224.845,37.128 224.824,37.057 224.452 C 37.009 224.200,36.544 223.918,35.762 223.667 C 35.091 223.452,34.283 223.035,33.966 222.741 C 33.649 222.448,33.224 222.118,33.022 222.009 C 32.497 221.725,31.033 219.743,30.647 218.793 C 30.467 218.350,30.125 217.576,29.887 217.073 C 29.227 215.679,29.207 147.065,29.867 145.602 C 30.093 145.099,30.442 144.317,30.641 143.863 C 31.135 142.741,32.526 140.952,33.248 140.512 C 33.573 140.314,33.978 139.984,34.147 139.779 C 34.317 139.573,34.950 139.259,35.554 139.079 C 36.158 138.900,36.877 138.596,37.151 138.404 C 37.914 137.869,66.603 137.877,67.854 138.412 C 68.314 138.609,69.121 138.903,69.648 139.066 C 70.626 139.368,71.052 139.689,72.701 141.370 C 75.801 144.528,75.551 140.979,75.535 181.531 C 75.521 218.850,75.555 217.872,74.199 219.645 C 72.732 221.563,70.730 223.270,69.485 223.665 C 68.683 223.919,68.218 224.198,68.170 224.452 C 68.099 224.823,68.796 224.845,80.253 224.845 C 90.781 224.845,92.411 224.801,92.411 224.516 C 92.411 224.124,91.912 223.836,90.838 223.607 C 90.405 223.514,89.725 223.174,89.328 222.849 C 88.931 222.525,88.296 222.022,87.917 221.732 C 87.539 221.442,87.068 220.886,86.871 220.496 C 86.674 220.106,86.331 219.584,86.108 219.337 C 85.886 219.089,85.519 218.280,85.294 217.538 C 84.731 215.688,84.522 92.151,85.078 90.388 C 85.253 89.831,85.466 89.043,85.552 88.635 C 85.637 88.228,85.925 87.650,86.192 87.352 C 86.459 87.054,87.083 86.304,87.577 85.686 C 88.072 85.068,88.654 84.500,88.871 84.424 C 89.088 84.348,89.561 84.038,89.921 83.735 C 91.456 82.443,93.321 82.293,107.851 82.293 C 115.129 82.293,121.387 82.387,121.919 82.503 C 124.714 83.115,125.164 83.256,125.591 83.656 C 125.846 83.896,126.149 84.094,126.265 84.097 C 126.894 84.110,129.630 87.284,129.864 88.271 C 129.949 88.631,130.233 89.280,130.495 89.713 L 130.972 90.500 130.972 153.457 L 130.972 216.414 130.498 217.313 C 130.238 217.808,129.962 218.472,129.886 218.789 C 129.810 219.107,129.538 219.608,129.282 219.903 C 129.026 220.199,128.621 220.757,128.382 221.143 C 128.143 221.530,127.591 222.038,127.155 222.273 C 126.720 222.507,126.363 222.779,126.363 222.877 C 126.363 223.051,125.610 223.422,124.171 223.955 C 121.981 224.766,122.987 224.845,135.469 224.845 C 145.884 224.845,147.499 224.801,147.499 224.516 C 147.499 224.111,146.962 223.810,145.882 223.607 C 143.909 223.237,140.684 219.188,140.312 216.615 C 139.986 214.362,139.996 41.236,140.321 39.445 C 140.833 36.633,143.311 33.738,146.374 32.371 C 147.867 31.706,172.479 31.362,177.496 31.937 C 180.071 32.231,184.598 35.300,184.598 36.750 C 184.598 36.880,184.898 37.544,185.264 38.224 L 185.929 39.460 185.934 128.162 L 185.940 216.863 185.080 218.606 C 183.814 221.173,181.863 223.026,179.695 223.721 C 179.047 223.929,178.615 224.209,178.569 224.452 C 178.498 224.826,183.890 224.845,289.247 224.845 L 400.000 224.845 400.000 112.423 L 400.000 0.000 200.000 0.000 L 0.000 0.000 0.000 112.423 M303.541 36.873 C 304.963 36.994,307.797 37.194,309.839 37.319 C 312.374 37.473,314.228 37.716,315.685 38.086 C 316.859 38.383,318.524 38.693,319.386 38.774 C 320.248 38.855,321.412 39.128,321.972 39.380 C 322.532 39.633,323.699 39.931,324.564 40.044 C 325.501 40.165,326.380 40.426,326.736 40.689 C 327.065 40.932,327.974 41.233,328.755 41.359 C 329.537 41.485,330.453 41.793,330.791 42.042 C 331.129 42.292,331.940 42.611,332.594 42.749 C 333.248 42.888,334.046 43.188,334.368 43.415 C 334.689 43.642,335.388 43.925,335.921 44.045 C 336.454 44.165,337.152 44.455,337.472 44.690 C 337.793 44.926,338.538 45.282,339.129 45.482 C 339.720 45.682,340.467 46.053,340.790 46.307 C 341.112 46.560,341.500 46.768,341.652 46.768 C 341.803 46.768,342.282 47.008,342.715 47.302 C 343.148 47.596,343.862 47.956,344.302 48.101 C 344.742 48.246,345.228 48.517,345.383 48.704 C 345.538 48.890,346.010 49.187,346.433 49.363 C 346.856 49.540,347.504 49.939,347.873 50.250 C 348.243 50.561,348.664 50.818,348.809 50.821 C 348.954 50.825,349.470 51.128,349.956 51.496 C 350.442 51.863,350.934 52.164,351.050 52.164 C 351.167 52.164,351.590 52.442,351.991 52.782 C 353.077 53.702,353.939 54.368,354.694 54.870 C 356.046 55.770,356.969 56.486,358.251 57.630 C 358.971 58.272,360.084 59.251,360.724 59.805 C 362.297 61.167,367.042 65.925,368.352 67.454 C 368.934 68.134,369.603 68.893,369.838 69.140 C 371.098 70.469,373.290 73.197,374.212 74.583 C 374.790 75.452,375.415 76.291,375.602 76.446 C 375.789 76.601,375.942 76.850,375.942 77.001 C 375.942 77.151,376.198 77.620,376.512 78.041 C 377.711 79.651,378.198 80.415,378.651 81.394 C 378.909 81.951,379.304 82.608,379.528 82.856 C 379.753 83.103,380.013 83.558,380.106 83.867 C 380.199 84.177,380.458 84.663,380.681 84.949 C 380.905 85.235,381.209 85.842,381.358 86.298 C 381.506 86.754,381.810 87.362,382.032 87.648 C 382.255 87.934,382.556 88.529,382.702 88.971 C 382.847 89.413,383.207 90.129,383.501 90.562 C 383.795 90.996,384.036 91.514,384.036 91.715 C 384.036 91.916,384.328 92.686,384.686 93.427 C 385.043 94.167,385.408 95.126,385.497 95.559 C 385.586 95.992,385.850 96.662,386.084 97.048 C 386.318 97.434,386.613 98.291,386.738 98.954 C 386.864 99.616,387.152 100.515,387.380 100.950 C 387.607 101.386,387.913 102.432,388.060 103.275 C 388.206 104.118,388.521 105.301,388.758 105.903 C 388.996 106.506,389.293 107.820,389.419 108.823 C 389.545 109.827,389.794 111.080,389.973 111.608 C 391.758 116.863,391.701 141.390,389.897 144.773 C 389.790 144.973,389.589 146.076,389.450 147.222 C 389.311 148.369,389.001 149.804,388.762 150.411 C 388.522 151.019,388.208 152.206,388.063 153.049 C 387.919 153.892,387.623 154.935,387.406 155.368 C 387.189 155.801,386.891 156.762,386.744 157.504 C 386.597 158.246,386.299 159.106,386.082 159.415 C 385.864 159.725,385.568 160.453,385.423 161.034 C 385.278 161.616,384.907 162.567,384.598 163.148 C 384.289 163.729,384.036 164.377,384.036 164.589 C 384.036 164.801,383.774 165.360,383.453 165.833 C 383.133 166.305,382.816 167.027,382.749 167.436 C 382.683 167.846,382.403 168.410,382.128 168.689 C 381.853 168.968,381.506 169.569,381.357 170.025 C 381.209 170.481,380.909 171.088,380.692 171.374 C 380.474 171.660,380.158 172.248,379.989 172.681 C 379.820 173.114,379.447 173.754,379.161 174.104 C 378.874 174.453,378.637 174.858,378.633 175.003 C 378.630 175.148,378.326 175.664,377.959 176.150 C 377.591 176.636,377.291 177.150,377.291 177.291 C 377.291 177.433,377.038 177.787,376.728 178.078 C 376.419 178.368,376.165 178.714,376.164 178.848 C 376.163 178.981,375.809 179.534,375.377 180.077 C 374.946 180.620,374.592 181.179,374.592 181.319 C 374.592 181.460,374.314 181.839,373.974 182.161 C 373.634 182.484,373.052 183.167,372.681 183.678 C 371.365 185.494,370.538 186.527,369.257 187.955 C 367.422 190.000,362.162 195.252,360.346 196.852 C 359.504 197.594,358.596 198.411,358.328 198.667 C 358.061 198.923,357.538 199.319,357.167 199.547 C 356.796 199.775,356.290 200.140,356.043 200.359 C 354.685 201.557,353.936 202.136,353.743 202.136 C 353.624 202.136,353.334 202.349,353.098 202.610 C 352.863 202.870,352.316 203.279,351.883 203.518 C 351.146 203.925,350.285 204.494,348.964 205.444 C 348.657 205.665,348.101 205.978,347.729 206.139 C 347.357 206.300,346.849 206.621,346.601 206.852 C 346.353 207.083,345.720 207.442,345.194 207.651 C 344.668 207.860,344.238 208.110,344.238 208.207 C 344.238 208.304,343.808 208.554,343.283 208.763 C 342.757 208.973,342.170 209.285,341.979 209.456 C 341.787 209.628,341.199 209.921,340.671 210.107 C 340.143 210.294,339.439 210.640,339.106 210.877 C 338.773 211.114,338.046 211.429,337.491 211.576 C 336.936 211.724,336.279 212.030,336.031 212.256 C 335.784 212.482,335.178 212.742,334.684 212.833 C 334.191 212.924,333.179 213.287,332.436 213.638 C 331.693 213.990,330.832 214.278,330.523 214.278 C 330.214 214.279,329.614 214.490,329.191 214.748 C 328.768 215.006,327.706 215.367,326.830 215.549 C 325.955 215.731,324.807 216.072,324.279 216.305 C 323.751 216.539,322.688 216.798,321.918 216.882 C 321.148 216.966,319.893 217.267,319.130 217.550 C 318.368 217.834,316.901 218.137,315.870 218.223 C 314.840 218.310,312.985 218.572,311.748 218.806 C 305.559 219.976,291.303 219.892,287.352 218.662 C 287.167 218.604,285.726 218.407,284.150 218.223 C 282.574 218.039,280.982 217.732,280.611 217.540 C 280.241 217.348,279.102 217.081,278.080 216.945 C 277.058 216.809,275.578 216.457,274.791 216.162 C 274.003 215.868,273.143 215.626,272.879 215.625 C 272.616 215.623,271.875 215.378,271.233 215.079 C 270.590 214.780,269.462 214.381,268.726 214.192 C 267.989 214.003,267.047 213.642,266.633 213.390 C 266.219 213.137,265.717 212.930,265.518 212.929 C 265.319 212.929,264.611 212.640,263.944 212.286 C 263.277 211.933,262.366 211.577,261.920 211.495 C 261.473 211.413,260.926 211.145,260.703 210.900 C 260.481 210.654,259.888 210.343,259.386 210.207 C 258.883 210.072,258.183 209.718,257.830 209.421 C 257.477 209.124,256.951 208.881,256.661 208.881 C 256.371 208.881,255.847 208.642,255.498 208.350 C 255.148 208.058,254.424 207.577,253.887 207.282 C 253.351 206.987,252.607 206.576,252.233 206.368 C 251.860 206.161,251.337 205.789,251.072 205.542 C 250.807 205.295,250.323 205.026,249.997 204.945 C 249.670 204.864,249.120 204.502,248.774 204.141 C 248.428 203.780,248.028 203.485,247.885 203.485 C 247.742 203.485,247.432 203.272,247.196 203.011 C 246.961 202.751,246.414 202.342,245.981 202.103 C 244.987 201.554,243.834 200.721,243.155 200.061 C 242.866 199.780,242.296 199.281,241.888 198.953 C 239.720 197.204,235.070 193.048,234.306 192.175 C 234.111 191.952,233.516 191.295,232.985 190.714 C 231.464 189.052,230.170 187.555,228.574 185.610 C 225.919 182.372,225.217 181.419,224.737 180.395 C 224.552 180.000,224.261 179.595,224.091 179.495 C 223.921 179.396,223.602 178.960,223.383 178.527 C 223.163 178.094,222.745 177.454,222.453 177.105 C 222.161 176.755,221.922 176.338,221.922 176.177 C 221.922 176.016,221.754 175.745,221.549 175.576 C 221.343 175.406,220.993 174.856,220.770 174.354 C 220.547 173.851,220.161 173.256,219.911 173.030 C 219.662 172.804,219.393 172.272,219.313 171.847 C 219.233 171.423,218.943 170.804,218.667 170.473 C 218.391 170.142,218.037 169.466,217.880 168.971 C 217.723 168.477,217.413 167.870,217.190 167.622 C 216.967 167.375,216.715 166.869,216.629 166.498 C 216.544 166.127,216.243 165.469,215.959 165.037 C 215.676 164.604,215.374 163.895,215.289 163.463 C 215.203 163.030,214.941 162.341,214.706 161.932 C 214.470 161.523,214.164 160.714,214.025 160.133 C 213.886 159.553,213.579 158.737,213.342 158.319 C 213.105 157.902,212.763 156.861,212.584 156.006 C 212.404 155.151,212.098 154.145,211.905 153.772 C 211.712 153.398,211.412 152.285,211.238 151.299 C 211.065 150.313,210.722 148.928,210.476 148.221 C 210.230 147.515,209.916 145.898,209.779 144.628 C 209.642 143.359,209.374 141.740,209.185 141.031 C 208.175 137.251,208.207 119.095,209.231 114.702 C 209.423 113.881,209.726 112.168,209.906 110.895 C 210.085 109.623,210.391 108.206,210.586 107.748 C 210.780 107.289,211.085 106.088,211.263 105.078 C 211.442 104.068,211.779 102.803,212.011 102.267 C 212.244 101.731,212.506 100.838,212.593 100.281 C 212.680 99.725,212.940 98.959,213.170 98.579 C 213.401 98.200,213.738 97.254,213.919 96.477 C 214.100 95.701,214.397 94.898,214.578 94.694 C 214.760 94.490,215.066 93.788,215.258 93.134 C 215.450 92.480,215.814 91.682,216.067 91.361 C 216.319 91.040,216.526 90.618,216.526 90.424 C 216.526 90.025,218.451 85.958,218.884 85.441 C 219.040 85.256,219.285 84.737,219.429 84.288 C 219.573 83.839,219.889 83.292,220.132 83.073 C 220.375 82.853,220.573 82.545,220.573 82.388 C 220.573 82.231,220.820 81.810,221.121 81.452 C 221.422 81.095,221.838 80.379,222.045 79.861 C 222.252 79.344,222.509 78.921,222.617 78.921 C 222.725 78.921,223.021 78.541,223.276 78.078 C 225.189 74.596,231.051 67.478,235.715 62.973 C 239.483 59.333,240.866 58.133,244.407 55.423 C 244.963 54.998,245.672 54.439,245.981 54.183 C 246.717 53.572,247.948 52.727,248.791 52.255 C 249.162 52.047,249.798 51.587,250.205 51.234 C 250.611 50.880,251.051 50.590,251.184 50.590 C 251.316 50.590,251.725 50.337,252.093 50.028 C 252.460 49.719,252.941 49.466,253.162 49.466 C 253.383 49.466,253.946 49.162,254.413 48.791 C 254.879 48.420,255.391 48.117,255.550 48.117 C 255.709 48.117,256.143 47.861,256.515 47.549 C 256.886 47.237,257.521 46.865,257.927 46.724 C 258.333 46.583,259.012 46.231,259.437 45.943 C 259.861 45.655,260.372 45.418,260.571 45.418 C 260.770 45.417,261.540 45.114,262.282 44.744 C 263.024 44.374,263.783 44.069,263.969 44.067 C 264.154 44.064,264.812 43.762,265.430 43.395 C 266.048 43.028,266.767 42.727,267.027 42.724 C 267.286 42.722,267.956 42.478,268.515 42.181 C 269.073 41.884,270.123 41.518,270.847 41.367 C 271.570 41.217,272.511 40.907,272.938 40.679 C 273.364 40.450,274.176 40.202,274.743 40.126 C 275.309 40.050,276.481 39.754,277.347 39.466 C 278.212 39.179,280.077 38.776,281.491 38.570 C 282.904 38.365,284.219 38.115,284.414 38.015 C 285.024 37.701,286.201 37.561,291.156 37.213 C 293.805 37.026,296.023 36.823,296.084 36.762 C 296.272 36.574,300.802 36.641,303.541 36.873 M97.246 40.922 C 97.322 41.046,97.624 41.147,97.917 41.147 C 98.681 41.147,99.194 41.752,99.113 42.558 C 99.012 43.564,98.476 43.795,97.653 43.186 C 95.629 41.690,93.693 44.139,95.100 46.416 C 95.668 47.335,96.482 47.333,97.725 46.409 C 98.411 45.900,98.439 45.897,98.810 46.307 C 99.422 46.984,99.180 47.937,98.281 48.386 C 97.861 48.595,97.411 48.873,97.281 49.004 C 96.605 49.679,93.784 48.584,93.321 47.466 C 93.169 47.100,92.901 46.745,92.725 46.677 C 91.863 46.347,91.781 43.459,92.627 43.238 C 92.850 43.179,93.187 42.740,93.375 42.261 C 93.631 41.609,93.877 41.357,94.357 41.256 C 94.709 41.181,95.149 41.031,95.334 40.922 C 95.800 40.648,97.076 40.648,97.246 40.922 M65.324 41.512 L 65.870 42.102 64.976 42.750 L 64.081 43.398 64.081 45.602 C 64.081 48.284,63.878 48.696,62.788 48.228 L 62.057 47.914 62.057 45.664 L 62.057 43.414 61.045 42.821 C 60.028 42.225,59.995 42.095,60.665 41.315 C 61.270 40.611,64.620 40.752,65.324 41.512 M72.583 41.411 C 73.746 41.769,74.190 43.601,73.308 44.399 C 72.906 44.763,72.896 44.855,73.189 45.422 C 73.782 46.570,73.842 47.728,73.339 48.348 L 72.888 48.904 72.340 48.390 C 72.039 48.108,71.664 47.486,71.506 47.008 C 70.964 45.365,68.803 45.289,68.803 46.912 C 68.803 48.018,67.815 49.024,67.266 48.476 C 66.731 47.942,66.467 42.124,66.952 41.553 C 67.488 40.922,70.732 40.840,72.583 41.411 M78.912 41.414 C 79.164 41.685,79.370 42.005,79.370 42.127 C 79.370 42.249,79.519 42.512,79.700 42.713 C 79.882 42.913,80.198 43.730,80.402 44.528 C 80.607 45.326,80.964 46.221,81.196 46.516 C 81.670 47.119,81.731 47.711,81.386 48.357 C 81.051 48.983,80.735 48.904,79.499 47.882 C 78.313 46.902,77.350 46.815,76.724 47.632 C 75.680 48.995,75.506 49.054,74.965 48.228 C 74.524 47.556,74.821 45.954,75.561 45.015 C 75.801 44.709,75.998 44.245,75.999 43.983 C 76.005 41.797,77.797 40.217,78.912 41.414 M87.903 41.366 C 88.140 41.492,88.382 41.773,88.441 41.990 C 89.181 44.722,88.487 45.930,86.228 45.838 L 84.879 45.783 84.687 46.669 C 84.276 48.566,83.650 49.271,83.077 48.487 C 82.302 47.427,82.463 41.644,83.283 41.093 C 83.626 40.862,87.377 41.084,87.903 41.366 M91.021 41.330 C 91.680 41.989,91.557 47.722,90.870 48.410 C 89.883 49.396,89.520 48.512,89.442 44.938 C 89.363 41.262,89.847 40.156,91.021 41.330 M104.582 41.274 C 105.277 41.634,105.902 42.758,105.902 43.649 C 105.902 43.921,106.156 44.576,106.467 45.106 C 107.223 46.396,107.431 47.905,106.923 48.413 C 106.394 48.942,106.230 48.896,105.570 48.031 C 104.553 46.698,102.832 46.960,101.419 48.663 C 100.647 49.593,99.958 47.541,100.703 46.532 C 100.961 46.184,101.281 45.411,101.414 44.815 C 101.750 43.307,103.151 40.922,103.700 40.922 C 103.810 40.922,104.207 41.080,104.582 41.274 M69.171 43.087 C 68.157 43.637,69.080 44.018,71.107 43.885 C 71.951 43.830,71.897 43.274,71.018 42.967 C 70.116 42.653,69.953 42.664,69.171 43.087 M84.664 43.139 C 84.405 43.956,84.761 44.354,85.625 44.214 C 86.542 44.065,86.849 43.701,86.542 43.126 C 86.237 42.557,84.846 42.566,84.664 43.139 M77.947 44.308 C 77.594 44.812,77.764 45.419,78.259 45.419 C 78.561 45.419,78.738 44.554,78.517 44.159 C 78.334 43.832,78.269 43.849,77.947 44.308 M103.354 44.220 C 103.148 44.425,103.172 44.795,103.415 45.179 C 103.749 45.707,104.391 45.057,104.091 44.496 C 103.854 44.053,103.611 43.962,103.354 44.220 M42.808 56.492 C 43.299 57.272,42.723 57.662,40.899 57.785 C 38.989 57.914,38.450 58.515,40.135 58.638 C 41.202 58.715,43.170 59.321,43.170 59.572 C 43.170 59.880,41.279 60.483,40.311 60.483 C 39.286 60.483,39.263 60.516,39.020 62.308 C 38.795 63.975,37.922 64.596,37.420 63.445 C 37.031 62.554,37.032 57.135,37.421 56.541 C 37.906 55.801,42.348 55.761,42.808 56.492 M50.158 56.877 L 51.040 57.768 51.040 59.673 C 51.040 61.769,50.804 62.671,50.200 62.883 C 49.982 62.960,49.522 63.283,49.178 63.601 C 47.864 64.815,44.386 63.825,43.901 62.098 C 43.588 60.982,43.735 58.175,44.152 57.308 C 44.673 56.225,45.183 56.020,47.404 56.002 L 49.276 55.987 50.158 56.877 M57.984 56.353 C 58.883 56.983,59.217 58.105,58.780 59.026 C 58.466 59.687,58.452 59.965,58.685 60.935 C 59.250 63.290,58.247 64.970,57.344 63.182 C 56.910 62.321,55.667 60.496,55.511 60.489 C 55.061 60.470,54.164 61.538,53.946 62.350 C 53.504 64.004,52.868 64.326,52.282 63.193 C 51.876 62.408,51.791 57.134,52.172 56.421 C 52.494 55.821,57.145 55.766,57.984 56.353 M65.469 56.359 C 65.720 56.586,65.881 57.045,65.883 57.539 C 65.891 59.434,67.744 59.771,67.862 57.899 C 67.975 56.093,70.092 55.063,70.835 56.452 C 71.191 57.118,71.035 63.289,70.651 63.672 C 69.990 64.332,69.499 63.499,69.134 61.095 C 68.964 59.978,68.578 60.244,68.578 61.478 C 68.578 64.387,65.527 64.401,65.089 61.495 L 64.920 60.371 64.651 61.675 C 64.498 62.420,64.176 63.186,63.901 63.461 L 63.420 63.943 63.095 63.166 C 62.701 62.223,62.788 56.799,63.205 56.296 C 63.559 55.868,64.970 55.907,65.469 56.359 M76.201 56.298 C 76.744 56.952,77.596 58.843,77.833 59.921 C 77.969 60.540,78.270 61.287,78.501 61.582 C 79.487 62.840,78.716 64.610,77.632 63.575 C 77.276 63.235,76.911 62.957,76.821 62.957 C 76.730 62.957,76.389 62.781,76.062 62.567 C 75.225 62.019,74.518 62.187,73.636 63.143 C 72.920 63.920,72.853 63.946,72.490 63.587 C 71.780 62.887,72.013 61.270,73.066 59.584 C 73.182 59.399,73.341 58.753,73.419 58.151 C 73.644 56.405,75.349 55.271,76.201 56.298 M85.372 56.164 C 86.347 56.784,86.905 58.186,86.398 58.745 C 86.075 59.102,86.019 59.523,86.077 61.139 C 86.187 64.162,85.087 64.702,84.206 62.057 C 83.441 59.762,82.299 59.878,81.822 62.300 C 81.513 63.874,81.107 64.340,80.540 63.773 C 80.052 63.286,79.829 56.855,80.281 56.310 C 80.573 55.958,84.854 55.834,85.372 56.164 M89.640 56.663 C 89.793 56.971,89.985 57.527,90.065 57.898 C 90.200 58.522,90.230 58.540,90.468 58.138 C 90.957 57.312,92.526 55.992,93.022 55.989 C 93.951 55.984,94.156 56.884,93.379 57.549 C 91.846 58.860,91.844 59.921,93.370 61.429 C 93.713 61.767,93.985 62.285,93.985 62.596 C 93.985 62.903,94.088 63.219,94.214 63.296 C 94.601 63.536,94.217 63.856,93.543 63.856 C 93.027 63.856,92.648 63.554,91.591 62.300 C 90.175 60.618,90.055 60.619,89.822 62.310 C 89.305 66.068,87.915 64.068,87.915 59.567 C 87.915 56.113,88.704 54.783,89.640 56.663 M101.547 56.321 C 102.256 56.618,102.403 56.618,102.826 56.321 C 103.538 55.823,107.848 55.847,108.407 56.352 C 109.006 56.894,108.565 57.506,107.357 57.811 L 106.352 58.064 106.351 60.229 C 106.350 61.991,106.267 62.531,105.905 63.125 C 104.909 64.759,104.268 63.764,104.311 60.653 C 104.332 59.194,104.248 58.297,104.072 58.085 C 103.708 57.646,102.313 57.079,102.028 57.255 C 101.902 57.333,100.926 57.512,99.860 57.654 C 97.466 57.971,97.131 58.502,99.207 58.687 C 101.742 58.913,101.783 60.228,99.262 60.437 C 97.841 60.555,97.611 60.815,98.032 61.830 C 98.302 62.482,98.332 62.492,99.582 62.362 C 101.005 62.213,101.499 62.514,101.366 63.450 C 101.243 64.324,97.145 64.360,96.343 63.494 C 95.600 62.692,95.462 56.646,96.178 56.229 C 96.799 55.868,100.617 55.933,101.547 56.321 M115.131 56.455 C 115.582 57.297,114.877 57.756,113.015 57.832 C 110.681 57.928,110.723 58.526,113.074 58.685 C 115.995 58.882,116.032 60.318,113.119 60.437 C 111.358 60.509,111.130 60.685,111.509 61.681 C 111.721 62.240,111.831 62.282,113.086 62.282 C 114.539 62.282,115.519 63.143,114.840 63.823 C 114.295 64.367,110.232 64.153,109.843 63.559 C 109.372 62.841,109.258 56.885,109.705 56.347 C 110.214 55.734,114.794 55.825,115.131 56.455 M122.317 56.324 C 123.096 56.727,123.416 57.927,123.031 59.002 C 122.864 59.469,122.852 59.991,122.994 60.596 C 123.653 63.409,122.159 65.490,121.429 62.776 C 121.303 62.310,120.845 61.584,120.410 61.163 C 119.498 60.279,119.433 60.317,118.367 62.349 C 117.723 63.576,117.269 63.852,116.750 63.333 C 116.199 62.782,116.280 56.682,116.843 56.270 C 117.417 55.850,121.478 55.891,122.317 56.324 M129.526 56.219 C 130.052 56.501,130.096 57.393,129.607 57.882 C 129.178 58.311,129.069 58.312,128.512 57.891 C 127.676 57.258,125.928 57.588,126.211 58.325 C 126.318 58.604,126.678 58.685,127.818 58.685 C 129.083 58.685,129.286 58.741,129.286 59.090 C 129.286 59.313,129.625 59.824,130.040 60.226 C 131.709 61.844,128.854 64.984,126.417 64.211 C 125.285 63.851,124.015 62.316,124.451 61.834 C 125.004 61.222,125.565 61.267,126.116 61.967 C 126.836 62.883,128.027 62.853,128.118 61.917 C 128.202 61.056,127.688 60.483,126.830 60.483 C 124.921 60.483,123.902 59.215,124.302 57.338 C 124.563 56.117,127.971 55.387,129.526 56.219 M46.655 57.723 C 45.096 58.107,45.200 61.296,46.805 62.272 L 47.488 62.687 48.365 61.836 C 49.665 60.575,49.620 58.264,48.286 57.799 C 47.569 57.550,47.395 57.541,46.655 57.723 M54.244 57.934 C 53.750 58.134,53.941 58.473,54.733 58.804 C 55.524 59.135,57.111 58.769,57.111 58.256 C 57.111 57.839,55.052 57.608,54.244 57.934 M81.959 58.005 C 81.690 58.440,82.294 59.134,82.941 59.134 C 83.625 59.134,84.453 58.412,84.213 58.024 C 84.028 57.724,82.143 57.708,81.959 58.005 M118.648 58.064 C 118.269 58.341,118.293 58.388,118.990 58.720 C 119.858 59.135,121.304 58.831,121.304 58.235 C 121.304 57.780,119.220 57.646,118.648 58.064 M75.260 59.415 C 75.204 59.570,75.262 59.895,75.387 60.138 C 75.607 60.564,75.622 60.562,75.807 60.061 C 76.004 59.529,75.896 59.134,75.554 59.134 C 75.447 59.134,75.315 59.261,75.260 59.415 M297.133 78.607 C 296.391 78.780,295.262 79.016,294.624 79.131 C 293.987 79.246,293.076 79.536,292.601 79.775 C 292.126 80.013,291.383 80.324,290.950 80.464 C 290.517 80.604,289.607 81.122,288.926 81.616 C 288.246 82.109,287.336 82.754,286.903 83.050 C 285.807 83.798,282.890 86.745,282.502 87.496 C 282.326 87.838,282.004 88.217,281.788 88.340 C 281.318 88.606,281.849 89.123,282.856 89.380 C 283.447 89.530,285.104 91.197,285.104 91.641 C 285.104 91.784,285.319 92.175,285.583 92.510 C 286.280 93.396,285.865 93.711,284.609 93.251 C 284.077 93.056,283.063 92.735,282.355 92.537 C 281.566 92.316,280.976 92.006,280.831 91.735 C 280.701 91.492,280.348 91.231,280.048 91.155 C 279.747 91.080,279.384 90.876,279.240 90.703 C 279.068 90.497,278.511 90.388,277.623 90.388 C 276.795 90.388,275.750 90.199,274.932 89.900 C 273.800 89.488,273.484 89.453,272.869 89.676 C 272.470 89.820,271.828 89.938,271.443 89.938 C 271.058 89.938,270.458 90.049,270.110 90.184 C 269.762 90.319,268.799 90.610,267.971 90.830 C 267.142 91.050,265.987 91.546,265.403 91.933 C 264.819 92.320,264.197 92.636,264.022 92.636 C 263.846 92.636,263.445 92.839,263.130 93.086 C 262.470 93.606,261.270 93.696,261.270 93.226 C 261.270 93.055,261.498 92.749,261.776 92.545 C 262.172 92.255,262.184 92.221,261.832 92.391 C 260.778 92.899,257.970 96.178,257.191 97.808 C 256.925 98.364,256.470 99.042,256.179 99.315 C 255.829 99.641,255.649 100.063,255.649 100.553 C 255.649 100.962,255.390 101.783,255.074 102.377 C 254.016 104.364,253.729 112.820,254.627 115.571 C 255.448 118.088,256.083 119.640,256.523 120.198 C 256.784 120.530,256.998 120.921,256.998 121.065 C 256.998 122.322,261.885 127.326,264.137 128.375 C 264.663 128.620,265.093 128.921,265.093 129.045 C 265.093 129.168,265.593 129.417,266.205 129.599 C 266.816 129.781,267.601 130.130,267.947 130.376 C 268.787 130.972,274.140 131.641,276.546 131.451 C 278.433 131.303,282.045 131.282,305.790 131.283 C 327.045 131.285,333.862 131.097,335.245 130.474 C 335.801 130.223,336.786 129.846,337.434 129.635 C 338.082 129.424,338.676 129.148,338.754 129.022 C 338.843 128.878,338.722 128.885,338.434 129.039 C 337.688 129.438,337.493 129.332,337.493 128.527 C 337.493 127.663,337.804 127.324,338.775 127.130 C 339.147 127.055,339.795 126.697,340.215 126.333 C 340.635 125.970,341.416 125.347,341.951 124.950 C 342.486 124.552,343.266 123.898,343.686 123.496 C 344.105 123.094,344.540 122.766,344.652 122.766 C 344.764 122.766,344.919 122.368,344.997 121.882 C 345.085 121.329,345.344 120.837,345.690 120.565 C 345.994 120.326,346.366 119.861,346.516 119.531 C 346.666 119.202,347.022 118.874,347.308 118.802 C 347.762 118.688,347.824 118.541,347.803 117.615 C 347.789 117.003,347.945 116.236,348.174 115.794 L 348.568 115.031 348.966 115.522 C 349.310 115.947,349.383 115.964,349.503 115.651 C 349.580 115.452,349.524 115.146,349.380 114.972 C 349.088 114.620,349.541 113.462,349.887 113.676 C 350.505 114.058,350.383 106.954,349.755 105.995 C 349.564 105.703,349.268 104.867,349.097 104.136 C 348.927 103.405,348.579 102.517,348.325 102.162 C 348.071 101.808,347.751 101.082,347.613 100.551 C 347.475 100.019,347.212 99.526,347.029 99.455 C 346.845 99.385,346.552 99.050,346.377 98.712 C 345.958 97.901,342.663 94.590,341.531 93.840 C 341.041 93.516,340.641 93.174,340.641 93.080 C 340.641 92.986,340.502 92.856,340.331 92.791 C 340.147 92.720,340.034 92.810,340.050 93.013 C 340.117 93.822,339.288 93.953,337.156 93.471 C 333.727 92.697,330.060 92.913,323.983 94.250 C 321.075 94.889,320.590 94.773,318.760 93.005 C 317.665 91.948,317.252 91.378,317.138 90.769 C 316.905 89.529,312.236 84.542,311.308 84.542 C 311.137 84.542,310.670 84.195,310.270 83.771 C 309.870 83.346,309.287 82.935,308.974 82.857 C 308.662 82.778,308.113 82.468,307.755 82.166 C 307.369 81.841,306.818 81.619,306.400 81.619 C 306.012 81.619,304.932 81.370,304.000 81.067 C 303.068 80.763,301.799 80.381,301.180 80.218 C 300.231 79.967,299.992 79.790,299.644 79.083 C 299.189 78.158,299.117 78.144,297.133 78.607 M302.642 78.471 C 303.082 78.755,303.541 78.755,303.541 78.471 C 303.541 78.347,303.263 78.248,302.923 78.250 C 302.441 78.252,302.379 78.301,302.642 78.471 M312.724 92.504 C 313.195 92.975,312.884 93.510,311.920 93.885 C 311.454 94.066,310.618 94.453,310.062 94.745 C 309.505 95.036,308.568 95.337,307.978 95.413 C 307.388 95.490,306.629 95.755,306.292 96.004 C 305.954 96.253,305.070 96.567,304.328 96.702 C 303.586 96.837,302.827 97.078,302.642 97.237 C 302.263 97.562,301.153 97.924,299.875 98.139 C 299.404 98.218,298.836 98.466,298.611 98.691 C 298.387 98.915,297.570 99.210,296.793 99.347 C 296.017 99.484,295.215 99.746,295.012 99.931 C 294.808 100.115,293.944 100.428,293.091 100.625 C 292.238 100.823,291.274 101.175,290.948 101.407 C 289.587 102.376,287.352 102.146,287.352 101.037 C 287.352 100.542,287.779 99.831,288.077 99.831 C 288.219 99.831,288.557 99.623,288.828 99.369 C 289.152 99.064,289.840 98.832,290.844 98.690 C 291.762 98.560,292.470 98.334,292.626 98.121 C 292.768 97.927,293.521 97.621,294.300 97.441 C 295.079 97.261,295.984 96.920,296.312 96.682 C 296.640 96.444,297.543 96.150,298.319 96.029 C 299.094 95.907,300.008 95.609,300.348 95.367 C 300.688 95.125,301.571 94.815,302.310 94.678 C 303.049 94.542,303.686 94.336,303.724 94.220 C 303.809 93.969,304.770 93.656,306.521 93.310 C 307.232 93.169,307.813 92.968,307.813 92.864 C 307.813 92.624,309.505 91.997,310.399 91.906 C 311.258 91.819,312.309 92.089,312.724 92.504 M260.596 95.130 C 260.596 95.834,260.178 96.155,259.567 95.921 C 259.252 95.800,259.250 95.749,259.553 95.446 C 259.739 95.260,259.956 94.904,260.035 94.655 C 260.236 94.023,260.596 94.328,260.596 95.130 M311.366 97.853 C 312.374 98.861,311.542 100.185,309.619 100.634 C 308.866 100.810,308.023 101.102,307.745 101.285 C 307.467 101.467,306.554 101.760,305.717 101.935 C 304.880 102.111,304.022 102.409,303.812 102.598 C 303.601 102.787,302.784 103.108,301.995 103.311 C 301.206 103.514,300.346 103.820,300.084 103.991 C 299.821 104.162,298.880 104.466,297.992 104.666 C 297.104 104.867,296.261 105.171,296.120 105.342 C 295.978 105.513,295.288 105.770,294.586 105.913 C 293.885 106.056,293.000 106.362,292.620 106.593 C 292.240 106.825,291.379 107.122,290.708 107.253 C 290.037 107.384,289.168 107.651,288.777 107.846 C 287.679 108.393,286.811 108.022,286.721 106.968 C 286.642 106.035,286.892 105.833,288.591 105.452 C 289.180 105.320,289.904 105.022,290.200 104.789 C 290.496 104.556,291.165 104.295,291.687 104.209 C 292.209 104.124,293.151 103.812,293.780 103.517 C 294.409 103.223,295.464 102.879,296.125 102.754 C 296.786 102.628,297.496 102.372,297.703 102.185 C 297.910 101.998,298.818 101.691,299.720 101.502 C 300.622 101.314,301.601 100.971,301.895 100.739 C 302.189 100.508,302.857 100.251,303.379 100.168 C 303.901 100.086,304.803 99.776,305.383 99.480 C 305.963 99.184,306.874 98.877,307.407 98.798 C 307.939 98.719,308.628 98.489,308.938 98.287 C 309.247 98.085,309.803 97.858,310.174 97.781 C 310.545 97.705,310.904 97.629,310.972 97.613 C 311.040 97.596,311.218 97.704,311.366 97.853 M256.407 101.833 C 256.330 102.216,256.179 102.530,256.071 102.530 C 255.842 102.530,255.807 101.391,256.020 100.837 C 256.262 100.207,256.572 101.007,256.407 101.833 M255.193 105.902 C 255.193 106.335,255.107 106.824,255.003 106.989 C 254.687 107.487,254.489 106.632,254.658 105.503 C 254.831 104.355,255.193 104.626,255.193 105.902 M302.092 109.161 C 307.748 111.881,308.300 118.682,303.154 122.229 C 297.350 126.229,289.124 119.165,292.399 112.993 C 294.587 108.869,298.373 107.372,302.092 109.161 M255.301 111.507 C 255.125 113.446,254.856 114.213,254.667 113.319 C 254.139 110.821,254.367 108.902,255.118 109.526 C 255.390 109.751,255.425 110.133,255.301 111.507 M297.583 111.301 C 293.020 112.699,293.404 119.685,298.090 120.523 C 303.808 121.545,306.447 114.411,301.432 111.489 C 300.974 111.223,298.269 111.090,297.583 111.301 M321.192 138.562 C 320.944 138.736,320.337 139.037,319.843 139.230 C 318.954 139.577,317.257 140.984,317.257 141.374 C 317.257 141.631,318.613 141.447,319.056 141.129 C 319.334 140.929,319.344 140.942,319.112 141.203 C 318.803 141.549,318.709 146.299,319.003 146.728 C 319.094 146.861,319.326 147.027,319.519 147.098 C 319.712 147.169,319.993 147.638,320.143 148.140 C 320.478 149.258,320.454 149.243,322.313 149.506 C 323.952 149.738,324.984 150.344,324.348 150.700 C 323.781 151.017,323.911 151.604,324.508 151.422 C 328.888 150.084,330.875 144.500,328.098 141.336 C 327.722 140.908,327.353 140.364,327.278 140.128 C 327.195 139.866,326.768 139.588,326.190 139.419 C 325.667 139.266,324.998 138.987,324.704 138.799 C 323.941 138.311,321.758 138.163,321.192 138.562 M328.248 158.210 C 326.968 159.753,328.505 164.780,330.586 165.856 C 330.984 166.062,331.567 166.420,331.881 166.652 C 332.744 167.291,337.943 167.201,337.943 166.548 C 337.943 166.507,337.411 166.475,336.762 166.476 C 335.220 166.478,333.884 166.073,333.130 165.374 C 332.796 165.065,332.412 164.812,332.276 164.812 C 331.179 164.812,328.226 159.506,328.625 158.250 C 328.786 157.743,328.648 157.728,328.248 158.210 M292.268 162.170 C 291.697 163.230,291.889 166.212,292.580 167.034 C 292.920 167.438,293.198 167.893,293.198 168.045 C 293.198 168.471,294.589 169.685,295.257 169.841 C 295.586 169.918,296.025 170.046,296.233 170.126 C 296.532 170.241,296.595 170.159,296.535 169.734 C 296.472 169.290,296.329 169.197,295.719 169.199 C 295.145 169.201,294.951 169.092,294.856 168.712 C 294.788 168.441,294.492 168.163,294.191 168.087 C 293.793 167.987,293.648 167.796,293.648 167.372 C 293.648 167.054,293.446 166.537,293.198 166.222 C 292.695 165.582,292.631 165.001,292.992 164.329 C 293.181 163.974,293.151 163.783,292.852 163.453 C 292.605 163.179,292.506 162.790,292.571 162.347 C 292.690 161.531,292.630 161.496,292.268 162.170 " stroke="none" fill="#f5f4f8" fill-rule="evenodd"></path><path id="path4" d="M296.505 109.261 C 295.090 109.830,292.974 111.498,292.974 112.043 C 292.974 112.154,292.735 112.720,292.443 113.302 C 291.463 115.252,291.459 116.641,292.428 118.655 C 293.557 121.003,294.278 121.704,296.791 122.894 C 298.995 123.937,303.071 122.851,304.662 120.797 C 306.678 118.192,306.516 118.643,306.430 115.898 C 306.366 113.860,306.271 113.300,305.902 112.776 C 305.655 112.425,305.350 111.975,305.225 111.775 C 303.538 109.071,299.717 107.970,296.505 109.261 M302.491 112.236 C 303.102 112.847,303.548 113.530,303.648 114.007 C 303.737 114.434,303.948 115.002,304.117 115.268 C 304.850 116.429,303.110 119.707,301.375 120.432 C 296.215 122.588,291.798 116.197,295.822 112.396 C 297.172 111.120,297.392 111.047,299.539 111.148 L 301.495 111.241 302.491 112.236 M287.916 131.591 C 287.863 131.745,287.791 134.283,287.755 137.230 C 287.673 143.927,288.217 143.305,282.564 143.168 L 278.337 143.065 278.404 144.214 L 278.471 145.363 284.126 145.403 L 289.782 145.443 289.911 144.728 C 290.092 143.725,290.123 131.834,289.945 131.546 C 289.738 131.211,288.034 131.248,287.916 131.591 M297.720 131.740 C 297.458 131.905,297.413 133.918,297.446 144.046 C 297.468 150.706,297.395 156.459,297.285 156.830 L 297.084 157.504 298.607 157.504 C 299.889 157.504,300.089 157.454,299.868 157.189 C 299.678 156.959,299.592 153.565,299.551 144.710 C 299.521 138.020,299.443 132.319,299.378 132.040 C 299.254 131.504,298.351 131.340,297.720 131.740 M310.512 131.755 C 310.218 131.940,310.166 133.965,310.112 147.322 L 310.049 162.676 310.530 163.069 C 311.603 163.947,327.825 163.594,327.825 162.693 C 327.825 161.892,327.254 161.191,326.727 161.346 C 325.992 161.561,314.719 161.736,313.690 161.547 C 313.275 161.471,312.693 161.168,312.398 160.872 L 311.861 160.335 311.861 146.370 C 311.861 131.069,311.846 130.911,310.512 131.755 M322.313 131.907 C 321.676 132.544,321.529 133.280,321.529 135.834 L 321.529 138.305 322.597 138.236 L 323.665 138.168 323.728 135.445 C 323.810 131.871,323.393 130.827,322.313 131.907 M38.561 138.283 C 37.394 138.608,35.657 139.226,35.169 139.489 C 33.719 140.271,32.581 141.185,32.179 141.889 C 31.929 142.329,31.523 142.870,31.277 143.093 C 31.031 143.316,30.761 143.816,30.677 144.205 C 30.593 144.595,30.309 145.318,30.046 145.812 L 29.567 146.712 29.567 181.450 L 29.567 216.189 30.185 217.220 C 30.526 217.788,30.804 218.382,30.804 218.541 C 30.804 219.730,34.604 223.487,35.814 223.494 C 36.524 223.498,37.774 224.137,37.774 224.497 C 37.774 225.094,67.580 225.020,67.737 224.422 C 67.839 224.031,68.490 223.731,69.927 223.412 C 70.507 223.283,73.524 220.510,73.524 220.105 C 73.524 219.980,73.772 219.648,74.075 219.367 C 75.345 218.190,75.349 218.079,75.267 180.214 C 75.187 142.659,75.261 144.661,73.879 142.914 C 72.250 140.853,70.300 139.179,69.529 139.179 C 69.188 139.179,68.505 138.952,68.012 138.673 L 67.116 138.168 53.176 138.131 C 45.509 138.111,38.932 138.179,38.561 138.283 M265.803 140.724 C 265.006 141.329,264.930 146.266,265.705 147.084 C 267.767 149.260,268.084 149.522,268.643 149.522 C 269.230 149.522,269.228 149.516,268.321 148.567 C 266.914 147.095,266.681 146.659,266.896 145.909 C 267.144 145.044,266.798 143.869,266.085 143.156 L 265.509 142.580 265.995 141.922 C 266.683 140.991,266.549 140.157,265.803 140.724 M315.980 145.250 C 315.980 146.054,316.021 146.383,316.070 145.981 C 316.120 145.579,316.120 144.921,316.070 144.519 C 316.021 144.117,315.980 144.446,315.980 145.250 M323.429 151.789 C 323.346 151.923,323.011 151.976,322.685 151.907 C 322.105 151.786,322.103 151.789,322.607 152.040 C 323.025 152.249,323.193 152.227,323.498 151.922 C 323.705 151.715,323.807 151.546,323.726 151.546 C 323.645 151.546,323.511 151.655,323.429 151.789 " stroke="none" fill="#4f0cce" fill-rule="evenodd"></path><path id="path5" d="M61.158 41.313 C 60.228 41.675,60.269 42.143,61.288 42.777 L 62.282 43.396 62.282 45.526 L 62.282 47.656 62.948 48.000 C 63.911 48.498,64.145 47.939,64.046 45.369 L 63.969 43.346 64.755 42.683 L 65.542 42.019 65.012 41.583 C 64.483 41.148,62.025 40.976,61.158 41.313 M67.304 41.479 C 66.756 41.863,66.733 47.717,67.277 48.261 C 67.804 48.789,68.539 48.066,68.621 46.940 C 68.750 45.176,71.162 45.200,71.692 46.970 C 71.832 47.437,72.148 48.001,72.394 48.224 C 73.428 49.159,73.943 47.204,73.085 45.603 C 72.695 44.877,72.684 44.751,72.985 44.501 C 73.942 43.706,73.756 41.985,72.668 41.568 C 71.679 41.189,67.810 41.125,67.304 41.479 M77.451 41.356 C 76.730 41.656,76.464 42.111,76.182 43.532 C 76.037 44.261,75.727 45.119,75.492 45.440 C 74.943 46.190,74.719 47.772,75.097 48.227 C 75.521 48.738,75.930 48.638,76.354 47.920 C 77.116 46.631,78.195 46.633,79.852 47.927 C 81.290 49.049,82.095 48.170,81.075 46.591 C 80.778 46.132,80.470 45.351,80.390 44.857 C 80.031 42.636,78.569 40.893,77.451 41.356 M82.954 41.623 C 82.588 42.307,82.766 47.942,83.169 48.426 C 83.610 48.957,84.260 48.351,84.439 47.243 C 84.711 45.558,84.784 45.497,86.381 45.598 C 88.218 45.715,88.477 45.454,88.477 43.481 C 88.477 41.568,88.325 41.456,85.500 41.296 C 83.345 41.174,83.183 41.195,82.954 41.623 M89.690 41.765 C 89.559 42.105,89.472 43.142,89.496 44.070 C 89.521 44.997,89.526 46.171,89.508 46.678 C 89.486 47.301,89.619 47.776,89.918 48.140 L 90.360 48.679 90.815 48.229 C 91.369 47.681,91.570 42.096,91.058 41.479 C 90.613 40.943,89.952 41.081,89.690 41.765 M94.772 41.299 C 93.927 41.440,93.536 41.756,93.536 42.298 C 93.536 42.531,93.329 42.927,93.077 43.179 C 92.158 44.098,91.976 46.165,92.786 46.476 C 92.960 46.543,93.246 46.941,93.421 47.360 C 93.597 47.780,93.922 48.178,94.144 48.244 C 94.366 48.310,94.834 48.511,95.184 48.691 C 95.988 49.102,97.001 49.109,97.336 48.706 C 97.477 48.536,97.886 48.337,98.244 48.266 C 99.073 48.100,99.323 47.393,98.823 46.629 L 98.452 46.063 97.736 46.604 C 96.147 47.806,95.171 47.465,94.483 45.466 C 93.795 43.473,95.930 41.768,97.612 42.966 C 98.653 43.707,99.778 42.571,98.887 41.680 C 98.540 41.333,95.988 41.096,94.772 41.299 M103.289 41.319 C 102.896 41.577,101.726 44.064,101.429 45.276 C 101.282 45.878,101.014 46.517,100.833 46.697 C 100.219 47.311,100.601 48.932,101.247 48.454 C 103.561 46.742,104.635 46.523,105.389 47.610 C 106.164 48.729,106.668 48.875,106.941 48.061 C 107.193 47.309,107.051 46.537,106.475 45.531 C 106.192 45.037,105.889 44.135,105.800 43.527 C 105.560 41.883,104.223 40.707,103.289 41.319 M71.266 42.971 C 72.218 43.552,71.785 44.070,70.348 44.070 C 68.453 44.070,67.934 43.429,69.336 42.820 C 70.270 42.413,70.362 42.420,71.266 42.971 M86.052 42.636 C 87.168 42.935,86.876 44.165,85.646 44.346 C 84.750 44.477,84.231 43.829,84.595 43.032 C 84.844 42.485,85.166 42.398,86.052 42.636 M78.657 44.659 C 78.574 45.385,77.935 45.655,77.707 45.061 C 77.519 44.569,78.203 43.487,78.510 43.793 C 78.631 43.915,78.698 44.305,78.657 44.659 M104.141 44.400 C 104.335 44.826,104.327 45.037,104.107 45.302 C 103.737 45.748,103.204 45.358,103.204 44.642 C 103.204 43.705,103.759 43.562,104.141 44.400 M37.678 56.340 C 37.237 56.781,37.163 62.356,37.585 63.283 C 38.124 64.467,38.557 64.032,38.982 61.880 L 39.236 60.596 40.247 60.475 C 41.244 60.357,42.721 59.819,42.721 59.574 C 42.721 59.308,40.556 58.710,40.009 58.825 C 39.259 58.982,38.704 58.402,39.123 57.898 C 39.321 57.659,39.846 57.560,40.922 57.560 C 42.720 57.560,43.284 57.183,42.604 56.432 C 42.066 55.837,38.252 55.765,37.678 56.340 M45.287 56.345 C 43.526 57.199,43.207 62.138,44.854 63.047 C 45.100 63.183,45.544 63.471,45.840 63.687 C 46.464 64.143,47.797 64.199,48.468 63.797 C 50.862 62.362,51.163 61.811,50.994 59.166 C 50.824 56.500,47.924 55.067,45.287 56.345 M52.434 56.256 C 52.023 56.668,52.063 62.733,52.481 63.304 C 52.898 63.874,53.633 63.287,53.861 62.203 C 54.019 61.456,54.988 60.259,55.436 60.259 C 55.582 60.259,56.115 60.891,56.621 61.664 C 58.119 63.953,58.183 64.022,58.449 63.631 C 58.749 63.189,58.744 61.719,58.440 60.622 C 58.238 59.894,58.264 59.623,58.600 59.000 C 59.118 58.037,58.854 57.206,57.805 56.499 C 56.926 55.907,52.963 55.728,52.434 56.256 M63.631 56.277 C 62.933 56.630,62.647 61.943,63.262 63.117 L 63.581 63.725 64.055 62.948 C 64.316 62.520,64.531 61.816,64.533 61.383 C 64.543 59.573,65.065 59.703,65.280 61.569 C 65.599 64.346,68.353 64.046,68.353 61.234 C 68.353 59.216,68.956 59.285,69.246 61.336 C 69.533 63.366,70.278 64.336,70.707 63.238 C 70.960 62.592,70.839 56.610,70.566 56.281 C 69.661 55.191,68.129 56.128,68.125 57.774 C 68.120 59.406,67.976 59.604,66.921 59.433 C 65.994 59.282,65.655 58.774,65.655 57.531 C 65.655 56.109,64.895 55.638,63.631 56.277 M74.480 56.434 C 74.078 56.679,73.749 56.913,73.749 56.954 C 73.749 57.701,73.153 59.801,72.807 60.268 C 71.547 61.973,72.280 64.388,73.607 62.901 C 74.021 62.437,74.462 62.057,74.589 62.057 C 74.715 62.057,74.944 61.906,75.098 61.720 C 75.478 61.263,75.628 61.294,75.888 61.889 C 76.010 62.167,76.446 62.563,76.858 62.768 C 77.269 62.973,77.734 63.317,77.891 63.533 C 78.671 64.599,78.966 62.907,78.246 61.495 C 77.999 61.010,77.793 60.356,77.788 60.042 C 77.783 59.728,77.479 58.915,77.113 58.235 C 76.747 57.555,76.448 56.875,76.447 56.725 C 76.447 56.461,75.769 55.986,75.394 55.987 C 75.293 55.988,74.882 56.189,74.480 56.434 M80.417 56.398 C 79.913 56.954,79.879 61.900,80.371 63.076 C 80.930 64.414,81.374 64.017,81.837 61.764 C 82.055 60.706,82.212 60.418,82.664 60.246 C 83.537 59.914,83.561 59.937,84.212 61.720 C 84.862 63.503,84.975 63.616,85.538 63.053 C 85.801 62.790,85.891 62.234,85.891 60.879 C 85.891 59.582,85.987 58.951,86.225 58.688 C 86.602 58.272,86.041 56.830,85.284 56.268 C 84.642 55.791,80.875 55.892,80.417 56.398 M88.501 56.278 C 88.045 56.612,87.940 62.178,88.369 63.305 C 88.821 64.495,89.519 63.712,89.832 61.665 C 89.992 60.615,90.259 60.294,90.546 60.806 C 91.027 61.666,92.975 63.631,93.345 63.631 C 93.956 63.631,93.926 62.051,93.304 61.489 C 91.799 60.127,91.724 58.377,93.139 57.645 C 93.996 57.203,93.868 55.987,92.964 55.987 C 92.616 55.987,90.613 57.899,90.613 58.231 C 90.613 58.853,90.088 58.247,89.746 57.230 C 89.337 56.012,89.106 55.836,88.501 56.278 M96.311 56.304 C 95.644 56.790,95.660 62.216,96.332 63.241 C 96.718 63.831,100.730 64.232,101.231 63.731 C 101.814 63.147,101.058 62.680,99.705 62.789 L 98.298 62.902 97.914 61.898 C 97.443 60.664,97.643 60.392,99.052 60.345 C 99.604 60.326,100.319 60.138,100.640 59.928 L 101.224 59.545 100.712 59.186 C 100.431 58.989,99.660 58.783,99.000 58.728 C 97.093 58.570,97.167 57.560,99.085 57.560 C 100.203 57.560,102.080 57.144,102.080 56.895 C 102.080 56.172,97.181 55.669,96.311 56.304 M103.029 56.337 C 102.334 56.823,102.400 57.046,103.373 57.503 L 104.216 57.900 104.337 60.372 C 104.564 65.024,106.127 64.848,106.127 60.171 L 106.127 58.017 107.132 57.764 C 108.455 57.430,108.797 57.026,108.259 56.432 C 107.724 55.841,103.838 55.770,103.029 56.337 M109.893 56.229 C 109.348 56.547,109.307 62.157,109.843 63.193 L 110.186 63.856 112.391 63.856 C 114.779 63.856,114.996 63.789,114.655 63.152 C 114.472 62.809,114.167 62.732,112.997 62.732 L 111.563 62.732 111.412 61.841 C 111.204 60.610,111.349 60.483,112.963 60.483 C 115.877 60.483,115.821 58.767,112.903 58.638 C 110.752 58.543,110.635 57.706,112.760 57.615 C 115.057 57.516,115.696 57.101,114.851 56.256 C 114.516 55.921,110.460 55.899,109.893 56.229 M117.144 56.277 C 116.592 56.556,116.581 56.612,116.520 59.595 C 116.434 63.799,116.866 64.396,118.248 61.981 C 119.502 59.789,120.873 60.028,121.494 62.548 C 121.706 63.408,122.282 63.939,122.663 63.623 C 123.167 63.205,123.257 62.164,122.905 60.814 C 122.602 59.654,122.604 59.472,122.924 58.983 C 124.264 56.939,119.888 54.891,117.144 56.277 M125.635 56.151 C 124.441 56.325,123.955 57.964,124.681 59.367 C 125.022 60.027,125.153 60.086,127.031 60.426 C 127.956 60.593,128.051 60.674,128.235 61.450 C 128.620 63.081,127.190 63.424,125.874 62.016 C 124.961 61.037,123.959 61.600,124.572 62.747 C 124.700 62.986,124.938 63.182,125.100 63.182 C 125.262 63.182,125.577 63.384,125.801 63.631 C 126.895 64.840,130.128 63.482,130.475 61.669 C 130.688 60.558,129.027 58.996,127.438 58.813 C 126.078 58.655,125.715 58.407,126.124 57.915 C 126.529 57.427,127.675 57.305,128.388 57.674 C 129.453 58.224,130.427 57.256,129.620 56.449 C 129.295 56.124,126.991 55.952,125.635 56.151 M48.333 57.740 C 50.165 58.640,49.276 62.732,47.249 62.732 C 45.429 62.732,44.814 58.228,46.551 57.629 C 47.525 57.294,47.411 57.287,48.333 57.740 M56.921 57.919 C 57.580 58.327,56.447 59.134,55.216 59.134 C 54.612 59.134,53.687 58.501,53.799 58.164 C 53.972 57.645,56.195 57.471,56.921 57.919 M84.218 57.880 C 84.645 58.192,84.643 58.211,84.109 58.779 C 83.216 59.730,81.844 59.464,81.844 58.340 C 81.844 57.492,83.301 57.209,84.218 57.880 M120.856 57.786 C 121.664 58.093,121.501 58.690,120.517 59.028 C 119.725 59.300,118.044 58.780,118.044 58.263 C 118.044 57.785,119.986 57.455,120.856 57.786 M75.917 59.247 C 76.082 59.678,75.829 60.708,75.559 60.708 C 75.259 60.708,75.045 59.881,75.211 59.359 C 75.379 58.828,75.734 58.771,75.917 59.247 M319.730 151.096 C 319.916 151.216,320.320 151.306,320.630 151.295 L 321.192 151.276 320.630 151.096 C 319.763 150.819,319.301 150.819,319.730 151.096 M295.953 157.868 C 295.551 157.984,295.222 158.131,295.222 158.195 C 295.222 158.372,296.878 158.040,297.122 157.814 C 297.391 157.566,296.926 157.587,295.953 157.868 M300.618 157.808 C 300.804 157.917,301.259 158.071,301.630 158.151 C 302.062 158.245,302.183 158.226,301.967 158.100 C 301.782 157.991,301.327 157.837,300.956 157.756 C 300.524 157.663,300.403 157.682,300.618 157.808 M304.943 162.114 C 304.943 162.546,304.989 162.723,305.045 162.507 C 305.102 162.291,305.102 161.936,305.045 161.720 C 304.989 161.504,304.943 161.681,304.943 162.114 M304.774 166.627 C 304.691 167.007,304.315 167.668,303.940 168.096 C 303.564 168.524,303.306 168.923,303.366 168.983 C 303.578 169.195,305.115 166.979,305.115 166.461 C 305.115 165.728,304.955 165.806,304.774 166.627 " stroke="none" fill="#424342" fill-rule="evenodd"></path></g></svg>